<svg xmlns="http://www.w3.org/2000/svg" viewBox="0 0 381 532.15"><defs><style>.cls-1{fill:#603813;}.cls-2{fill:#754c24;}.cls-3{fill:#42210b;}</style></defs><title>aboutmeoverlay</title><g id="root"><path class="cls-1" d="M102.89,79.41l-9.74,15-7.58,20.74L83,134.4,79.5,149.57,82,172.84l3.54,37.42,4.55,41,12.64,61.7s4,31.86,4,34.9,2,28.57,2,32.36-2.78,30.35-2.78,30.35L93.91,451.11,84.43,480.7l.19,10.24,4,7.58L103,516.73l22,7.59,31.1,2.27L184.94,516l16.69-13.65,7.08-11.13H152.07l-9.61,2-9.1-3.79L125,471.22l6.82-19.73,4.74-13.65,2.28-26.55L143.22,387l-1.52-33.38-6.06-41-9.11-41.78L121.6,238l-3-20.19,9.86-14,13.82-13.12,8.18-7.77,7.2-15.55-2.27-21.62-5.56,10.37L140,165.34l-8.87,8.89-6.44,2.27-7.59.76L111.8,165,109,139.46l.82-38.44L109,74.22Z" transform="translate(-79.5 -3.93)"/><polyline class="cls-1" points="99.63 46.65 121.37 37.68 142.43 40.02 162.34 37.68 192.18 46.65 234.78 51.08 271.19 47.22 295.34 41.72 326.7 29.84 345.41 15.68 359.57 0 359.57 16.18 355.52 26.8 340.35 42.99 293.83 64.73 280.17 70.3 260.95 70.3 258.43 79.4 260.45 92.04 259.88 103.79 249.83 112.27 247.28 95.08 239.01 83.38 222.96 74.68 180.54 73.33 145.84 59.17 115.89 57.33 99.63 46.65"/><polygon class="cls-1" points="141.48 484.74 153.23 490.43 175.61 502.18 208.23 510.91 239.33 513.18 262.22 513.18 283.33 516.6 289.78 524.56 297.75 532.15 295.09 512.8 301.24 506.45 334.28 501.05 367.54 485.88 378.35 474.69 381 456.29 378.72 448.13 371.71 440.74 358.05 438.46 348.95 441.69 342.31 446.24 339.28 454.39 338.9 461.98 342.88 466.72 348.95 467.67 354.85 464.64 350.44 464.14 348.24 461.04 349.34 455.83 353.65 452.03 359.65 450.23 364.45 450.83 367.66 456.83 366.66 463.24 362.65 469.84 355.05 474.44 324.42 480.19 289.91 482.84 261.46 486.25 219.74 484.48 195.72 478.29 174.85 465.77 157.03 455.15 137.3 452.4 132.28 448.42 133.04 441.78 133.56 437.44 124.41 443.01 119.1 449.84 111.51 455.91 93.31 468.81 72.57 487.26 129.21 487.26 134.52 484.74 141.48 484.74"/><path class="cls-2" d="M109,87.37,98.46,101.28l-4.55,25.54-3.28,34.64s3.28,39.19,3.28,40.71c0,.42-.5,19.09-.5,19.09L92.1,260.89l-1.47-7.2L79.5,149.57l6.07-34.38,7.58-20.74,9.74-15L109,74.22" transform="translate(-79.5 -3.93)"/><polyline class="cls-2" points="29.52 135.53 26.93 154.75 24.09 189.84 26.8 211.46 27.88 197.61 29.52 187.94 37.55 173.34 32.3 161.02"/><polyline class="cls-3" points="39.07 213.92 40.2 238.7 40.2 254.63 40.2 277.14 43.24 292.31 49.56 307.48 49.56 302.55 48.55 296.48 48.04 285.86 47.03 266.96"/><polygon class="cls-2" points="99.63 46.65 121.37 37.68 142.43 40.02 162.34 37.68 192.18 46.65 234.78 51.08 273.69 46.65 295.34 41.72 326.7 29.84 302.3 43.24 280.68 49.05 263.48 54.74 255.14 57.15 248.44 59.8 252.23 68.65 243.89 64.48 229.6 60.18 210.63 58.92 196.19 57.49 191.42 64.48 185.35 59.17 179.03 56.13 171.77 55.28 165.75 59.67 161.83 54.11 149.15 53.2 143.66 54.52 137.96 52.4 130.38 53.39 123.14 51.33 117.01 51.58 112.42 49.2 99.63 46.65"/><polygon class="cls-3" points="180.54 73.33 218.73 70.8 238.96 76.62 249.83 93.31 249.83 112.27 247.28 95.08 239.01 83.38 222.96 74.68 180.54 73.33"/><polygon class="cls-3" points="260.95 70.3 280.17 70.3 293.83 64.73 312.1 56.19 297.21 61.46 292.17 63.24 287.98 61.45 285.13 64.48 283.55 65.78 278.87 66.63 272.52 64.48 271.76 67.14 270 68.27 260.95 70.3"/><path class="cls-2" d="M142.46,493.21l9.61-2,20.74-18.46L191,459.84l7.59-6.07L197,459.33l-8.09,8.09L183.33,474l-1.89,7-4.75-.38-4.48.88-2,4.91-.48,7.58s-12.22,0-12.26.13c-.13.38-15.68,4.8-15.68,4.8l-8.47-9.48Z" transform="translate(-79.5 -3.93)"/><polyline class="cls-3" points="29.33 376.26 30.82 410.77 24.09 458.94 23.14 476.01 27.31 488.34 32.62 497.63 39.07 502.18 53.1 510.34 66.19 514.89 80.03 517.74 88.99 518.11 76.62 522.67 45.52 520.39 23.52 512.8 9.1 494.6 5.12 487.01 4.93 476.77 26.55 406.6"/><path class="cls-2" d="M216.8,456.33l19.73,2.75,38.69,23.13,24,6.2L341,490.18l21.24-2.55,7.21-.86,34.51-2.66L398,486.39l-3.57,6.07-8-3.74H375l-2.66,6.14-8.11-4.32-3.83.65-8.54,3-11.66-.28-8.06.57-3.41,5.31-9.1-4.87s-18.29,1.36-18.59,1.36-21.81-1.9-21.81-1.9l-10.05-5.63-16.43-6.93-23.3-5.17-7-9.45Z" transform="translate(-79.5 -3.93)"/><polygon class="cls-3" points="262.22 513.18 285.99 509.96 289.27 511.57 297.75 532.15 289.78 524.56 283.33 516.6 262.22 513.18"/><polygon class="cls-2" points="348.95 467.67 344.44 463.81 342.88 460.27 342.79 456.48 347.24 446.62 354.45 442.44 362.42 441.78 370.76 443.49 379.55 451.11 378.72 448.13 371.71 440.74 358.05 438.46 348.95 441.69 342.31 446.24 339.28 454.4 338.9 461.98 342.88 466.72 348.95 467.67"/><polygon class="cls-3" points="354.85 464.64 349.8 465.3 346.77 462.55 346.11 456.86 347.43 453.73 350.09 451.64 355.43 449.43 359.65 450.23 353.65 452.03 349.44 455.74 348.24 461.04 350.44 464.14 354.85 464.64"/><polygon class="cls-3" points="367.66 456.83 368.2 461.15 367.54 467.04 361.66 474.12 354.63 476.77 347.43 477.47 341.07 477.06 355.05 474.44 362.65 469.84 364.67 466.52 366.66 463.24 367.66 456.83"/><polygon class="cls-3" points="301.24 506.45 317.85 501.68 338.9 497 363.36 484.8 373.19 480.02 367.54 485.88 358.39 490.05 334.28 501.05 301.24 506.45"/></g></svg>