<?xml version="1.0" encoding="UTF-8"?>
<svg id="base" xmlns="http://www.w3.org/2000/svg" viewBox="0 0 550 740">
  <defs>
    <style>
      .cls-1 {
        fill: #fff;
        stroke: #010101;
        stroke-miterlimit: 10;
        stroke-width: 10px;
      }
    </style>
  </defs>
  <path class="cls-1" d="M5,5V735H545V5H5ZM74,187.5c.34,0,.67,.01,1,.04v-.04H475v73H75v-.04c-.33,.03-.66,.04-1,.04-14.91,0-27-16.34-27-36.5s12.09-36.5,27-36.5Zm390,438c-14.91,20.16-39.09,20.16-54,0l-51.12-69.11-2.88-3.89H75v-.04c-.33,.03-.66,.04-1,.04-14.91,0-27-16.34-27-36.5s12.09-36.5,27-36.5c.34,0,.67,.01,1,.04v-.04h227l-54-73H75v-.04c-.33,.03-.66,.04-1,.04-14.91,0-27-16.34-27-36.5s12.09-36.5,27-36.5c.34,0,.67,.01,1,.04v-.04H221v-36.5h54l137.88,186.39,51.12,69.11c14.91,20.16,14.91,52.84,0,73Z"/>
  <path class="cls-1" d="M464,625.5c-14.91,20.16-39.09,20.16-54,0l-51.12-69.11-2.88-3.89-135-182.5v-73h54l137.88,186.39,51.12,69.11c14.91,20.16,14.91,52.84,0,73Z"/>
  <path class="cls-1" d="M5,5V735c135.36,0,259.1-67.34,353.88-178.61l-2.88-3.89H75v-.04c-.33,.03-.66,.04-1,.04-14.91,0-27-16.34-27-36.5s12.09-36.5,27-36.5c.34,0,.67,.01,1,.04v-.04h227l-54-73H75v-.04c-.33,.03-.66,.04-1,.04-14.91,0-27-16.34-27-36.5s12.09-36.5,27-36.5c.34,0,.67,.01,1,.04v-.04H221v-36.5h54l137.88,186.39c.84-1.29,1.66-2.59,2.49-3.89,14.66-23.13,28.25-47.5,40.68-73,6.66-13.63,12.98-27.56,18.95-41.81,10.22-24.35,19.43-49.56,27.56-75.54,27.33-87.33,42.44-183.36,42.44-284.15H5Zm470,255.5H75v-.04c-.33,.03-.66,.04-1,.04-14.91,0-27-16.34-27-36.5s12.09-36.5,27-36.5c.34,0,.67,.01,1,.04v-.04H475v73Z"/>
  <path class="cls-1" d="M75,406.5v-.04c-.33,.03-.66,.04-1,.04-14.91,0-27-16.34-27-36.5s12.09-36.5,27-36.5c.34,0,.67,.01,1,.04v-.04H221v36.5l27,36.5H75Z"/>
  <path class="cls-1" d="M75,552.5v-.04c-.33,.03-.66,.04-1,.04-14.91,0-27-16.34-27-36.5s12.09-36.5,27-36.5c.34,0,.67,.01,1,.04v-.04h227l54,73H75Z"/>
  <path class="cls-1" d="M475,187.5v73H75v-.04c-.33,.03-.66,.04-1,.04-14.91,0-27-16.34-27-36.5s12.09-36.5,27-36.5c.34,0,.67,.01,1,.04v-.04H475Z"/>
</svg>