<svg id="Layer_1" data-name="Layer 1" xmlns="http://www.w3.org/2000/svg" viewBox="0 0 51.92 53.72"><title>contact</title><g id="contact_icon" data-name="contact icon"><path d="M38.09,24.85c1.93,0,3.83-.33,5.76-.31a40.17,40.17,0,0,1,5.8.28,13,13,0,0,1,2.73.81A3.6,3.6,0,0,1,54.11,27a5,5,0,0,1,.61,2.32c.07,1,.14,2,.18,3,.08,2,0,3.95.18,5.93s.22,4,.38,6.07.5,4,.57,5.95a5.3,5.3,0,0,1,0,1.38,2.72,2.72,0,0,1-.63,1,8.93,8.93,0,0,1-1.84,1.63,15.8,15.8,0,0,1-2.21,1.3,11.65,11.65,0,0,1-2.92.71,48.32,48.32,0,0,1-5.89.57c-2.08.07-4.18,0-6.26,0-1,0-2,0-3.07,0s-2-.09-3.08-.12-1.93,0-2.9-.06-2-.08-3-.14c-2-.11-4-.3-5.94-.25s-3.89,0-5.84-.1c-.67,0-1.62-.06-1.89-.77s-.67-1.6-1-2.41a24.64,24.64,0,0,1-1.31-5.55C8.11,45.65,8,43.7,8,41.76A93.07,93.07,0,0,1,8.5,29.27a10.54,10.54,0,0,0,.08-1.12,1.69,1.69,0,0,1,.12-.84.94.94,0,0,0-1.63-.95,4.63,4.63,0,0,0-.39,2.24c-.07,1.12-.25,2.24-.35,3.36-.2,2.22-.28,4.43-.28,6.65s0,4.4.18,6.59a26.19,26.19,0,0,0,.87,6.11c.3,1,.55,2,.94,3,.18.44.39.87.55,1.32A8,8,0,0,0,9,56.74c1,1.79,3.63,1.42,5.35,1.52,2.12.12,4.24,0,6.36.1s4.23.2,6.34.33c1.09.07,2.17,0,3.25.07s2.13.11,3.21.1c2.27,0,4.53,0,6.8,0a55.19,55.19,0,0,0,6.43-.37A16,16,0,0,0,52.85,57a12.92,12.92,0,0,0,4.32-3.51c1.22-1.67.74-4.06.51-6-.25-2.14-.33-4.29-.57-6.42C57,40,57,38.92,56.92,37.84s-.14-2.18-.13-3.28a42.49,42.49,0,0,0-.33-6.38A5.37,5.37,0,0,0,53.36,24c-3.79-1.71-8.2-1.5-12.25-1.26-1,.06-2,.18-3,.2a1,1,0,0,0,0,1.9Z" transform="translate(-6.05 -5.14)"/><path d="M8.48,27.4c.74-.16,1.49-.33,2.24-.43s1.49-.06,2.23-.16,1.43-.09,2.12-.21a17.86,17.86,0,0,1,2.2-.27c2.88-.15,5.76-.49,8.63-.72,1.2-.09,1.21-2,0-1.89-3,.23-5.92.54-8.87.73-1.45.1-2.89.31-4.33.49-.77.1-1.55.07-2.33.17s-1.6.28-2.39.45c-1.19.27-.69,2.09.5,1.84Z" transform="translate(-6.05 -5.14)"/><path d="M29.75,43.22a19.79,19.79,0,0,0,2.54,1.12,2,2,0,0,0,2-.51,55.74,55.74,0,0,1,4.79-3.58c.78-.52,1.59-1,2.34-1.56a21.21,21.21,0,0,0,2.17-2c.68-.67,1.45-1.21,2.16-1.84s1.32-1.41,2-2.11,1.51-1.6,2.19-2.46,1.4-1.58,2-2.47-1-2-1.63-1a24.06,24.06,0,0,1-2,2.44c-.73.88-1.53,1.7-2.3,2.54a21.48,21.48,0,0,1-2.41,2.36c-.87.69-1.61,1.5-2.43,2.24a21.06,21.06,0,0,1-2.73,1.94c-1,.63-1.9,1.3-2.82,2l-1.3,1a12.8,12.8,0,0,0-1.4,1.13c-.21.23-.05,0,0,0a3.61,3.61,0,0,1-.65-.24c-.55-.22-1.07-.48-1.61-.74-1.09-.5-2.05,1.13-.95,1.65Z" transform="translate(-6.05 -5.14)"/><path d="M9.41,29.53a5.68,5.68,0,0,0,.55.28,3.47,3.47,0,0,1,.43.35,12.65,12.65,0,0,1,1,.95,5.87,5.87,0,0,0,1.06.86c.37.25.67.58,1,.85,1.61,1.2,3.27,2.34,5,3.38a.94.94,0,0,0,.95-1.63,50,50,0,0,1-4.95-3.35c-.35-.27-.65-.59-1-.84a4.91,4.91,0,0,1-.88-.76,10.36,10.36,0,0,0-1-.95,3.1,3.1,0,0,0-.61-.47,4.18,4.18,0,0,1-.56-.28.93.93,0,1,0-.95,1.61Z" transform="translate(-6.05 -5.14)"/><path d="M29.21,17.61a11.64,11.64,0,0,0-1.13,2.05A24,24,0,0,1,26.61,22c-1,1.45-2.05,2.84-3,4.29s-2.25,2.92-3.18,4.52-1.84,3.29-2.78,4.93S15.9,39,15,40.53a4.06,4.06,0,0,0-.41,2.52c.1.92.21,1.85.22,2.78,0,1.88.08,3.8,0,5.67,0,.62-.15,1.29.38,1.75s1.61.23,2.31-.1c.9-.43,1.82-.82,2.73-1.25a12,12,0,0,1,1.2-.58,8,8,0,0,0,1.28-.55c.43-.24.88-.44,1.32-.67s.81-.51,1.26-.7a11.85,11.85,0,0,1,2.5-1.11c1.19-.21.69-2-.5-1.82a6.77,6.77,0,0,0-2,.87c-.36.19-.74.33-1.11.5s-.72.44-1.09.63a17,17,0,0,1-2,1c-.78.28-1.48.68-2.25,1s-1.54.76-2.32,1.08l-.28.1-.13,0c-.4.06-.22.24.52.54a2.85,2.85,0,0,0,0-.78c.08-1.85,0-3.73,0-5.58,0-.79-.07-1.61-.16-2.4,0-.34-.09-.67-.1-1a2.13,2.13,0,0,1,.4-1.27c.84-1.45,1.55-3,2.38-4.41s1.7-3,2.56-4.54a35.93,35.93,0,0,1,3-4.29c1.1-1.41,2-3,3.11-4.39a19.65,19.65,0,0,0,1.53-2.31c.22-.38.41-.79.62-1.17A6.27,6.27,0,0,1,30.57,19c.75-.95-.58-2.29-1.36-1.36Z" transform="translate(-6.05 -5.14)"/><path d="M38.63,20.91a12.7,12.7,0,0,1-1.35,2.48,24.41,24.41,0,0,0-1.21,2.53c-.32.79-.66,1.59-1,2.34s-.64,1.69-1.09,2.48a20.9,20.9,0,0,0-1.13,2.62,10.06,10.06,0,0,1-.62,1.28,12.51,12.51,0,0,0-.59,1.42c-.74,1.77-1.19,3.67-2,5.43-.22.48-.44.95-.67,1.42s-.24.89-.44,1.32A9.19,9.19,0,0,0,28,45.6c-.12.42-.44.74-.51,1.18a1,1,0,0,0,.66,1.16,1,1,0,0,0,1.16-.66,8.5,8.5,0,0,1,.43-.93c.13-.38.2-.79.35-1.17a10.09,10.09,0,0,0,.4-1.17,9.21,9.21,0,0,1,.57-1.29c.4-.86.68-1.76,1-2.65.17-.44.36-.88.52-1.33s.24-1,.45-1.49c1.49-3.38,3-6.75,4.5-10.13.42-.94.82-1.89,1.32-2.79a14.9,14.9,0,0,0,1.54-2.93.94.94,0,0,0-1.81-.49Z" transform="translate(-6.05 -5.14)"/><path d="M29.52,19a2.83,2.83,0,0,1,1,.49,13.28,13.28,0,0,0,1.25.63c.81.38,1.63.73,2.46,1.06s1.69.65,2.54,1a5.63,5.63,0,0,0,1.34.35,1.43,1.43,0,0,1,.72.18,1,1,0,0,0,1.29-.34A1,1,0,0,0,39.8,21c-.64-.47-1.49-.37-2.19-.61-.91-.31-1.8-.66-2.69-1s-1.68-.69-2.49-1.09A9.49,9.49,0,0,0,30,17.13a1,1,0,0,0-1.16.66A.93.93,0,0,0,29.52,19Z" transform="translate(-6.05 -5.14)"/><path d="M30.93,17.16A14,14,0,0,1,31.48,14c.26-1.18.5-2.33.86-3.48.3-1,.57-1.94.95-2.86.09-.23.19-.44.26-.68a2.75,2.75,0,0,1,.07-.3l-.21.15c-.25.09-.29.15-.13.18s.69.2.84.24a6.38,6.38,0,0,1,.92.34c.5.22,1,.37,1.54.54s1.15.49,1.73.72a9.47,9.47,0,0,1,1.48.58,14.25,14.25,0,0,0,1.76.85,13.94,13.94,0,0,1,1.52.7l.78.44a1,1,0,0,0,.23.12c-.08-.31-.15-.38-.19-.19a2.6,2.6,0,0,1-.1.25c-.39,1-.82,2-1.29,2.92-.31.62-.6,1.25-.92,1.86s-.67,1.09-.92,1.68-.55,1-.8,1.52c-.12.26-.2.55-.32.81s-.34.54-.48.82c-.54,1.09,1.09,2,1.63.95s1.18-2.17,1.68-3.31c.26-.6.66-1.15,1-1.73s.65-1.31,1-2,.48-1.12.72-1.68a17.29,17.29,0,0,0,.74-1.71c.43-1.5-1-2.08-2.12-2.62-.61-.31-1.25-.54-1.88-.81s-1.26-.77-2-1S38.62,7,38,6.72,36.65,6.26,36,6s-1.23-.47-1.88-.66a1.77,1.77,0,0,0-1.78.11,2.35,2.35,0,0,0-.64,1.33c-.19.58-.38,1.19-.6,1.77a28.47,28.47,0,0,0-1.23,4.33,19.31,19.31,0,0,0-.77,4.31.93.93,0,0,0,1.86,0Z" transform="translate(-6.05 -5.14)"/><path d="M15,42.26a4.32,4.32,0,0,1,.3.56,5.45,5.45,0,0,0,.61.74,9.53,9.53,0,0,0,1.3,1.24,8.3,8.3,0,0,0,1.63.89c.57.25,1.12.54,1.7.76a36.73,36.73,0,0,0,3.56,1.12,14.56,14.56,0,0,0,4,.29,1,1,0,0,0,0-1.89,12.85,12.85,0,0,1-3.61-.25c-1.08-.3-2.19-.64-3.25-1-.53-.19-1-.46-1.56-.69a6.4,6.4,0,0,1-1.37-.72,8.77,8.77,0,0,1-1.14-1.14c-.34-.38-.51-.84-.84-1.23-.81-.91-2.14.43-1.34,1.34Z" transform="translate(-6.05 -5.14)"/><path d="M21.33,54.42A4.63,4.63,0,0,0,22.69,54a9,9,0,0,1,1.12-.33,2.66,2.66,0,0,1,1.1-.21,5.41,5.41,0,0,1,.93.53,4.08,4.08,0,0,0,2.54.08,9.26,9.26,0,0,1,2.7-.37c.86.13,1.66.48,2.53.59s1.84.12,2.76.21a29.16,29.16,0,0,0,3.1.07,13.16,13.16,0,0,0,2.78-.48c1.19-.27.68-2.09-.5-1.82-.46.1-.9.29-1.37.36a12.45,12.45,0,0,1-1.37.06c-1,0-1.9,0-2.87-.09a21.84,21.84,0,0,1-2.67-.22,18.46,18.46,0,0,0-2.55-.58,12.13,12.13,0,0,0-2.59.4,9,9,0,0,1-1.27.17,1.86,1.86,0,0,1-1-.42,3,3,0,0,0-2.33-.21c-.41.09-.82.21-1.22.33a8.13,8.13,0,0,1-1.19.5,1,1,0,0,0-.94.94.94.94,0,0,0,.94.94Z" transform="translate(-6.05 -5.14)"/></g></svg>