<svg xmlns="http://www.w3.org/2000/svg" viewBox="0 0 50.78 46.26"><defs><style>.cls-1{fill:#fff;}.cls-2{fill:none;stroke:#000;stroke-miterlimit:10;stroke-width:0.78px;}</style></defs><title>contact</title><g id="Layer_2" data-name="Layer 2"><polygon class="cls-1" points="50.39 11.47 50.39 45.82 0.39 39.82 0.39 5.47 30.61 9.1 43.31 0.52 46.55 4.52 38.44 10.04 50.39 11.47"/></g><g id="Layer_1" data-name="Layer 1"><polygon class="cls-2" points="50.39 19.82 50.39 45.82 0.39 39.82 0.39 13.82 4.01 14.25 20.12 16.19 15.3 19.44 14.12 21.47 12.18 24.81 18.24 23.78 20.51 22.23 28.01 17.13 32.87 17.72 50.39 19.82"/><polyline class="cls-2" points="38.44 10.04 50.39 11.47 50.39 19.82"/><polyline class="cls-2" points="0.39 13.82 0.39 5.47 30.61 9.1"/><polyline class="cls-2" points="50.39 25.82 34.37 23.9 20.51 22.23"/><polyline class="cls-2" points="14.12 21.47 6.74 20.58 1.09 19.9 0.39 19.82"/><path class="cls-2" d="M32,16.56" transform="translate(-6.61 -8.83)"/><path class="cls-2" d="M32,52.74" transform="translate(-6.61 -8.83)"/><line class="cls-2" x1="50.39" y1="25.82" x2="25.39" y2="42.82"/><line class="cls-2" x1="25.39" y1="42.82" x2="6.74" y2="20.59"/><path class="cls-2" d="M41,32.73a16.81,16.81,0,0,0-1.5-6.18,14.91,14.91,0,0,0-1.6-2.8L34.62,26l-7.5,5.1-2.27,1.55-6.06,1,1.94-3.34,1.18-2L26.73,25,34.2,20a17,17,0,0,0-23.58,3.11A17,17,0,0,0,7,33.56a17,17,0,1,0,34,0C41,33.28,41,33,41,32.73Z" transform="translate(-6.61 -8.83)"/><polygon class="cls-2" points="46.55 4.52 38.44 10.04 31.27 14.92 28.01 17.13 20.51 22.23 18.24 23.78 12.18 24.81 14.12 21.47 15.3 19.44 20.12 16.19 27.59 11.14 30.61 9.1 43.31 0.52 46.55 4.52"/></g></svg>