<svg xmlns="http://www.w3.org/2000/svg" viewBox="0 0 100 100"><defs><style>.cls-1{fill:none;}.cls-2{fill:#ffcf28;}</style></defs><title>favicn</title><g id="bg"><rect class="cls-1" width="100" height="100"/></g><g id="Layer_3" data-name="Layer 3"><path class="cls-2" d="M72.5,50c0,13.77-7.81,24.93-17.45,24.93V25.07C64.69,25.07,72.5,36.23,72.5,50Z"/><path class="cls-2" d="M90,25.07V74.93C80.31,74.93,72.5,63.77,72.5,50S80.31,25.07,90,25.07Z"/></g><g id="Layer_2" data-name="Layer 2"><path class="cls-2" d="M45,25V75h-.49q-.42,0-1.14-.09l-.16,0a34.26,34.26,0,0,1-19.53-9.29C20.48,71.32,15.54,75,10,75V25h.49l1.14.1.16,0a34.26,34.26,0,0,1,19.53,9.29C34.52,28.67,39.46,25,45,25Z"/></g></svg>