<?xml version="1.0" encoding="utf-8"?>
<!-- Generator: Adobe Illustrator 23.1.0, SVG Export Plug-In . SVG Version: 6.00 Build 0)  -->
<svg version="1.1" xmlns="http://www.w3.org/2000/svg" xmlns:xlink="http://www.w3.org/1999/xlink" x="0px" y="0px"
	 viewBox="0 0 64 64" style="enable-background:new 0 0 64 64;" xml:space="preserve">
<style type="text/css">
	.st0{display:none;}
	.st1{display:inline;fill:#FFFFFF;}
</style>
<g id="Layer_1" class="st0">
	<circle class="st1" cx="32" cy="32" r="25"/>
</g>
<g id="Layer_2">
	<g>
		<g>
			<g>
				<path d="M18.29,33.88c0.01,0.32-0.09,0.63-0.1,0.94c-0.01,0.28,0.03,0.56,0,0.85c-0.06,0.77-0.03,1.54-0.08,2.31
					c-0.04,0.67-0.16,1.34-0.21,2.02c-0.03,0.36-0.07,0.72-0.1,1.08c-0.03,0.38,0.01,0.75-0.04,1.13c-0.09,0.63-0.08,1.22-0.09,1.86
					c-0.02,0.76-0.1,1.51-0.1,2.27c0.01,0.58-0.12,1.14-0.11,1.72c0.01,0.68,0.01,1.37,0.01,2.05c0,1.46,0.04,2.92-0.02,4.38
					c-0.03,0.65-0.07,1.29-0.08,1.94c-0.01,0.54,0.01,1.08,0.44,1.47c0.87,0.8,2.49,0.46,3.55,0.45c1.5-0.02,3-0.2,4.51-0.2
					c0.66,0,1.32,0.01,1.98-0.01c0.64-0.02,1.26,0.13,1.91,0.11c1.46-0.04,2.9,0.2,4.36,0.22c1.52,0.02,3.03-0.01,4.55-0.02
					c1.46-0.01,2.92,0.02,4.38-0.14c1.38-0.15,2.78-0.34,4.14-0.6c0.97-0.18,2.43-0.23,2.73-1.4c0.15-0.58-0.08-1.15-0.23-1.71
					c-0.18-0.66-0.19-1.35-0.38-2.01c-0.4-1.36-0.6-2.79-0.94-4.17c-0.39-1.59-0.8-3.15-1.28-4.72c-0.49-1.6-0.98-3.19-1.41-4.81
					c-0.43-1.63-0.83-3.26-1.19-4.91c-0.17-0.77-0.34-1.55-0.46-2.33c-0.05-0.32-0.08-0.65-0.15-0.97
					c-0.02-0.11-0.06-0.22-0.08-0.33c-0.02-0.1-0.01-0.39-0.1-0.21c-0.25,0.14-0.5,0.29-0.75,0.43c0.49-0.06,1.16,0.29,1.65,0.41
					c0.78,0.19,1.54,0.43,2.33,0.55c0.71,0.11,1.43,0.13,2.15,0.21c0.74,0.08,1.47,0.24,2.2,0.39c0.64,0.13,1.26-0.04,1.51-0.7
					c0.23-0.63-0.06-1.25-0.38-1.78c-0.75-1.25-1.44-2.54-2.29-3.72c-0.4-0.56-0.87-1.08-1.28-1.63c-0.48-0.64-0.92-1.31-1.45-1.92
					c-0.93-1.07-1.96-2.04-2.89-3.11c-0.99-1.13-1.94-2.24-2.81-3.46c-0.84-1.18-1.69-2.32-2.47-3.55c-0.83-1.31-1.6-2.7-2.54-3.93
					c-0.4-0.53-0.83-1.03-1.23-1.56C35.05,6.25,34.72,5.62,34,5.55c-0.6-0.06-1.09,0.3-1.52,0.68c-0.53,0.48-1.06,0.94-1.61,1.4
					c-1.12,0.94-2.21,1.9-3.26,2.92c-2.12,2.07-4.14,4.32-5.96,6.66c-0.89,1.15-1.91,2.22-2.68,3.45c-0.78,1.25-1.61,2.46-2.42,3.69
					c-0.92,1.4-1.79,2.84-2.72,4.24c-0.42,0.64-0.72,1.35-1.07,2.02c-0.4,0.77-0.8,1.53-1.21,2.29c-0.31,0.58-0.66,1.27-0.08,1.83
					c0.43,0.42,1.06,0.36,1.61,0.28c1.58-0.23,3.17-0.46,4.76-0.58c1.11-0.09,1.12-1.82,0-1.74c-1.47,0.11-2.92,0.34-4.37,0.52
					c-0.12,0.02-0.87,0.02-0.99,0.12c0.01-0.01,0.38,0.76,0.39,0.76c0.06-0.01,0.19-0.35,0.23-0.41c0.15-0.3,0.31-0.59,0.47-0.89
					c0.62-1.17,1.15-2.43,1.9-3.53c0.75-1.1,1.44-2.25,2.16-3.38c1.41-2.22,2.84-4.47,4.51-6.5c1.71-2.08,3.39-4.19,5.25-6.14
					c0.9-0.95,1.84-1.87,2.81-2.75c1.02-0.93,2.12-1.77,3.15-2.69c0.15-0.14,0.29-0.29,0.45-0.42c0,0,0.23-0.16,0.23-0.16
					c-0.14-0.02-0.28-0.04-0.42-0.07c0.03,0.04,0.06,0.09,0.1,0.13c0.11,0.27,0.42,0.56,0.59,0.79c0.22,0.29,0.45,0.58,0.68,0.87
					c0.85,1.04,1.52,2.23,2.24,3.36c0.73,1.15,1.44,2.31,2.26,3.4c0.76,1.01,1.45,2.09,2.27,3.05c0.86,1.01,1.74,2.03,2.66,2.98
					c0.92,0.96,1.88,1.88,2.63,2.98c0.76,1.11,1.64,2.11,2.37,3.25c0.34,0.54,0.68,1.08,0.99,1.64c0.16,0.28,0.31,0.56,0.48,0.84
					c0.06,0.1,0.11,0.22,0.18,0.3c0.04,0.06,0.07,0.13,0.09,0.19c0.2-0.16,0.4-0.33,0.61-0.49c-0.04-0.09-0.79-0.17-0.88-0.18
					c-0.35-0.07-0.71-0.13-1.07-0.18c-0.71-0.1-1.43-0.14-2.15-0.21c-1.26-0.13-2.55-0.53-3.75-0.92c-0.48-0.16-1.14-0.28-1.55,0.12
					c-0.39,0.39-0.35,1-0.26,1.5c0.21,1.17,0.41,2.34,0.66,3.5c0.6,2.79,1.27,5.57,2.13,8.3c0.84,2.66,1.66,5.34,2.23,8.08
					c0.12,0.58,0.16,1.18,0.29,1.76c0.15,0.66,0.37,1.28,0.47,1.96c0.05,0.34,0.09,0.66,0.19,0.99c0.01,0.02,0.2,0.79,0.19,0.79
					c-0.12-0.03,0.47-0.33-0.1-0.19c-0.32,0.08-0.64,0.13-0.96,0.19c-2.7,0.52-5.39,0.76-8.13,0.76c-1.43,0-2.87,0.03-4.3,0.02
					c-1.4-0.01-2.79-0.18-4.19-0.23c-2.62-0.09-5.24-0.18-7.87,0.02c-0.72,0.05-1.44,0.06-2.16,0.11c-0.26,0.02-0.52,0.05-0.79,0.05
					c-0.09,0-0.79-0.14-0.81-0.11c0.07-0.11,0.05,0.48,0.17,0.06c0.02-0.07,0.01-0.21,0.01-0.27c0.01-0.28-0.01-0.57,0.01-0.85
					c0.04-0.73,0.09-1.45,0.1-2.19c0.01-1.37,0-2.75,0-4.12c0-0.56-0.04-1.13,0.04-1.68c0.1-0.67,0.03-1.34,0.07-2.02
					c0.04-0.63,0.1-1.25,0.09-1.88c0-0.26-0.06-0.55-0.02-0.81c0.05-0.35,0.15-0.66,0.14-1.03c-0.01-1.39,0.32-2.77,0.32-4.16
					c0-0.67,0.02-1.3,0.07-1.96c0.02-0.28-0.02-0.57,0-0.85c0.02-0.32,0.11-0.62,0.1-0.94C20,32.76,18.27,32.76,18.29,33.88
					L18.29,33.88z"/>
			</g>
		</g>
		<g>
			<g>
				<path d="M31.44,56.12c-0.05-0.33-0.04-0.66-0.07-0.99c-0.02-0.28-0.11-0.56-0.11-0.84c0-0.64-0.15-1.28-0.24-1.91
					c-0.09-0.67-0.21-1.34-0.29-2.02c-0.07-0.64-0.08-1.25-0.09-1.89c-0.01-0.43-0.15-0.01-0.16-0.05c0-0.01,0.7,0,0.76,0
					c0.7,0.03,1.4,0.01,2.09,0.01c0.67,0,1.34,0,2.01,0c0.34,0,0.69-0.01,1.03-0.02c0.17,0,0.33,0,0.5,0c0.05,0,0.11,0.01,0.16,0.01
					c-0.07-0.02-0.07-0.01,0.01,0.01c-0.13-0.07-0.26-0.15-0.38-0.22c-0.12-0.1-0.03,0-0.01,0.12c0.02,0.17,0.04,0.34,0.06,0.51
					c0.05,0.37,0.09,0.74,0.12,1.12c0.06,0.85,0.11,1.71,0.23,2.56c0.11,0.77,0.32,1.53,0.41,2.31c0.09,0.73,0.23,1.49,0.22,2.23
					c-0.01,1.12,1.73,1.12,1.74,0c0-0.46-0.05-0.92-0.12-1.38c-0.08-0.49-0.1-0.98-0.19-1.48c-0.17-0.9-0.36-1.81-0.42-2.73
					c-0.07-1-0.15-1.99-0.28-2.98c-0.11-0.86-0.25-1.68-1.27-1.79c-0.94-0.11-1.94-0.01-2.89-0.01c-0.98,0-1.96,0.03-2.94-0.01
					c-0.84-0.04-1.81-0.05-2.25,0.81c-0.17,0.34-0.16,0.71-0.16,1.08c0.01,0.53-0.02,1.03,0.06,1.56c0.16,1.11,0.3,2.22,0.46,3.32
					c0.15,1.03,0.17,2.08,0.33,3.11c0.07,0.46,0.65,0.72,1.07,0.61C31.33,57.06,31.51,56.59,31.44,56.12L31.44,56.12z"/>
			</g>
		</g>
	</g>
</g>
</svg>
