<svg xmlns="http://www.w3.org/2000/svg" viewBox="0 0 1080.09 1080"><defs><style>.cls-1{fill:none;}.cls-2{fill:#17210e;}.cls-3{fill:#17281b;}.cls-4{fill:gray;}.cls-5{fill:#101607;}.cls-6{fill:#25312c;}.cls-7{fill:#10362c;}.cls-8{fill:#25281b;}.cls-9{fill:#032242;}.cls-10{fill:#253b2c;}.cls-11{fill:#10422c;}.cls-12{fill:#816a4a;}.cls-13{fill:#36452c;}.cls-14{fill:#10182c;}.cls-15{fill:#032221;}.cls-16{fill:#102407;}.cls-17{fill:#104a38;}.cls-18{fill:#577e6c;}.cls-19{fill:#254322;}.cls-20{fill:#57956c;}.cls-21{fill:#032721;}.cls-22{fill:#032a21;}.cls-23{fill:#03314d;}.cls-24{fill:#03405e;}.cls-25{fill:#034f61;}.cls-26{fill:#034291;}.cls-27{fill:#032a7c;}.cls-28{fill:#3b523d;}.cls-29{fill:#314f3d;}.cls-30{fill:#798194;}.cls-31{fill:#798db3;}.cls-32{fill:#799ab3;}.cls-33{fill:#638b57;}.cls-34{fill:#fff;}</style></defs><title>mainbgnight</title><g id="Layer_2" data-name="Layer 2"><rect class="cls-1" width="1080" height="1080"/><polygon class="cls-2" points="1080 1080 362.6 1080 362.63 1079.98 362.72 1079.93 362.87 1079.84 363.24 1079.62 363.3 1079.58 363.6 1079.41 364.64 1078.79 364.97 1078.59 376.67 1071.65 403.75 1055.59 422.02 1044.74 422.03 1044.74 422.2 1044.64 422.36 1044.55 464.62 1019.47 477.15 1012.04 484.19 1007.86 497.67 999.86 502.91 996.75 503.01 996.69 503.02 996.69 517.17 988.29 586.74 947.01 593 943.3 612.63 912.34 615.62 907.64 616.06 906.94 638.6 871.4 690.2 866.6 696.97 795.94 697.9 786.2 706.41 777.59 706.42 777.58 740.6 743 749 681.44 793.4 620.6 805.4 756.2 811.06 762.82 836.44 792.5 848.54 806.65 868.28 829.73 872.6 834.78 875.58 843.78 881.6 861.94 881.88 862.77 883.44 867.49 889.31 885.21 902.6 925.3 922.97 944.89 939.15 960.44 963.07 983.45 993.8 1013 1001.22 1018.77 1073.18 1074.7 1077.74 1078.25 1078.56 1078.88 1079.02 1079.24 1079.51 1079.62 1079.97 1079.98 1080 1080"/><polygon id="mt3" class="cls-3" points="666.2 733.64 639.8 822.94 565.4 886.04 459.8 931.64 315.88 1079.98 1080 1080 1080 645.64 870.2 875.24 881 811.44 851 713.24 848.6 668.69 802.64 784.52 773 836.22 738.2 822.94 697.9 767.24 678.2 668.69 666.2 733.64"/><polygon id="mt2" class="cls-4" points="410.69 834.4 385.49 892.62 305.09 924.92 181.51 958.62 0.09 989.82 0.09 1079.62 1080.09 1079.62 761.09 965.82 684.29 924.92 560.69 893.82 512.69 868.62 506.69 845.82 503.09 804.42 482.69 834.4 461.09 847.02 439.49 845.82 410.69 834.4"/><polygon class="cls-5" points="0 927.8 156.2 893 609.8 1079 0 1078.47 0 927.8"/><polygon class="cls-6" points="626.65 909.59 612.63 912.34 574.65 919.97 569.8 921.24 568.05 919.97 542 930.43 534.54 932.18 512.71 942.02 504.94 943.82 502.47 944.88 438.41 955.29 432.33 954.18 425 955.4 423.82 955.74 364.23 973.22 357 975.34 311.19 988.77 311.16 988.78 311.06 988.8 302.23 991.39 300.72 991.84 261.92 1003.21 244.92 1008.19 229.9 1012.6 166.99 1031.04 166.98 1031.05 157.28 1033.89 127.41 1042.65 80 1056.55 68.6 1059.89 38.59 1068.69 28.28 1071.71 22.84 1073.3 5.2 1078.47 2.14 1079.37 1.3 1079.62 0.84 1079.75 0.07 1079.98 0 1080 0 990.2 0.09 990.18 20.58 986.66 56.52 980.48 63.36 979.3 96.87 973.54 112.56 970.84 128.22 968.15 143.15 965.58 155.73 963.42 155.74 963.42 176.69 959.82 179.69 959.3 181.43 959 183.29 958.49 183.97 958.31 187.31 957.39 193.58 955.68 201.43 953.54 212.05 950.65 212.15 950.62 212.18 950.61 220.53 948.33 232.02 945.2 232.27 945.13 248.22 940.78 250.45 940.17 250.84 940.07 256.07 938.64 257.35 938.29 261.69 936.76 262.09 936.61 262.34 936.52 265.29 935.48 265.34 935.47 271.83 933.17 281.04 929.91 282.98 929.23 288.54 927.26 291.42 926.24 298.27 923.82 305.94 921.1 314.42 918.1 316.95 917.21 328.46 913.14 335.34 910.71 351.73 904.91 356.28 903.3 378.24 895.53 385.4 893 402.8 873.8 419.3 910.82 420.03 910.11 423.71 906.53 424.71 905.55 425.03 905.25 429.78 900.62 431.19 899.25 436.41 894.17 437.77 892.84 442.23 888.51 444.15 886.63 445.57 885.25 447.92 882.96 452.2 878.8 455.63 877.65 457.22 877.12 457.97 876.86 459.39 876.39 465.44 874.36 468.98 873.17 483.65 868.25 501.2 833.3 506.6 846.2 512.6 869 513.28 869.25 515.11 869.92 515.3 869.99 527.89 874.61 530.9 875.71 531.37 875.88 531.7 876 542.3 879.89 543.76 880.43 552.62 883.68 553.82 884.11 561.26 886.84 568.17 889.38 569.81 889.98 579.14 893.4 581.4 894.23 589.38 897.15 591.22 897.83 616.06 906.94 623.71 908.71 626.65 909.59"/><polygon class="cls-7" points="355.4 913.3 362.6 930.2 413.6 933.8 425 955.4 503 942.4 569 917.09 626.65 909.59 684.29 924.92 779.37 972.75 666.6 1007.4 454.2 1012.6 168.2 1012.6 257.35 938.29 355.4 913.3"/><polygon id="mt1" class="cls-8" points="0 1011.13 270.2 988.34 481.4 999.74 669.8 988.34 758.6 940.24 875 719.53 899 613.67 927.8 748.34 939.8 646.34 963.8 683.17 998.6 564.74 1080 753.13 1080 1079.97 0 1080 0 1011.13"/><polygon class="cls-9" points="762.6 1000.6 750.31 1003.11 744.17 1004.37 737.62 1005.71 680.3 1017.44 643.72 1024.93 627.01 1028.35 623.48 1029.07 622.01 1029.37 619.12 1029.96 615.77 1030.65 613.29 1031.16 605.93 1032.66 598 1034.28 591.97 1035.52 585.16 1036.91 533.13 1047.56 525.74 1049.07 518.23 1050.61 426.22 1069.44 404.89 1073.8 381.8 1078.53 364.97 1078.59 324.2 1078.75 317.3 1078.78 224.48 1079.14 176.86 1079.32 175.62 1079.32 175.02 1079.33 175.01 1079.33 142.1 1079.45 135.02 1079.48 131.31 1079.49 98.7 1079.62 41.67 1079.84 36.32 1079.86 20.36 1079.92 5.19 1079.98 0.84 1080 0 1080 0 1038.7 0.09 1038.67 0.84 1038.44 9.78 1035.65 47.71 1023.83 69 1017.2 82.43 1015.6 88.47 1014.88 93.31 1014.3 107.6 1012.6 121.42 1013.73 153.66 1016.36 164 1017.2 164.62 1016.91 164.64 1016.9 167.08 1015.75 173.78 1012.6 179.3 1010 198.8 1003.7 222.2 1001.3 241.4 1005.2 243.96 1004.83 262.49 1002.11 266 1001.6 280.7 991.4 300.72 991.84 313.32 992.11 370.04 997.31 370.41 997.35 370.45 997.35 371 997.4 395.62 997.44 410.98 997.47 469.67 997.58 474.57 997.59 480.4 997.6 482.23 997.6 487.79 997.61 487.96 997.6 488.01 997.6 503.01 996.69 503.02 996.69 546.29 994.07 567.12 992.81 567.13 992.81 572.96 992.46 573.11 992.45 574.56 992.36 616.76 989.81 645.81 988.05 666.73 986.79 666.74 986.79 669.8 986.6 670.04 986.64 686.88 989.18 686.96 989.19 693.69 990.2 713.06 993.13 724.99 994.93 747.35 998.3 753.04 999.16 762.6 1000.6"/><polygon class="cls-6" points="1080 795 1080 1080 1072.36 1079.98 1069.97 1079.98 889.47 1079.62 756.42 1079.35 621.62 1079.09 594.73 1079.03 578.6 1079 578.63 1078.97 579.22 1078.35 587.38 1069.81 604.9 1051.48 612.79 1043.23 616.05 1039.82 617.79 1037.99 619.18 1036.54 620.53 1035.13 622.56 1033 624.53 1030.95 625.14 1030.31 627.01 1028.35 637.67 1017.2 638.62 1016.2 642.73 1011.9 646.56 1007.89 649.98 1004.31 651.6 1002.62 666.68 986.84 666.73 986.79 666.74 986.79 690.31 974.39 690.32 974.39 734.04 951.41 735.27 950.76 741.12 947.69 749.22 943.43 758.6 938.5 762.45 932.79 790.07 891.84 792.76 887.86 803.45 871.99 819.5 848.2 833.8 827 848.54 806.65 870.75 776 907.4 725.4 906.27 763.51 905.13 801.65 924.64 814.84 945 828.6 961.73 817.22 973.86 808.95 979 805.46 1008.32 785.5 1008.47 785.4 1010.45 784.05 1016.23 780.12 1021.4 776.6 1019.75 710.74 1019.4 696.6 1024.75 705.28 1037.01 725.2 1040.25 730.46 1080 795"/><polygon class="cls-10" points="927.8 746.6 879.4 784.6 867.4 833.3 811.4 887 782.28 893.61 758.6 938.5 666.73 986.79 586.6 1008.6 471.8 1079.14 1080 1074.65 1080 950.6 978.2 873.8 950.6 779 927.8 746.6"/><polygon class="cls-7" points="1080 986 1080 1080 1072.36 1079.98 934.8 1079.62 805.77 1079.28 697.9 1079 697.99 1078.86 698.96 1077.46 700.3 1075.53 708.6 1063.5 712.65 1057.64 719.54 1047.66 722.56 1043.3 730.53 1031.76 748.52 1005.71 749.44 1004.37 750.31 1003.11 753.04 999.16 753.64 998.3 762.12 986.02 767.3 978.52 769.11 975.9 773.11 970.11 773.35 969.75 787.84 948.78 802.11 928.12 817.8 905.4 830.01 899.04 874.6 875.8 880.32 870.42 883.44 867.49 890.31 861.03 892.35 859.12 901.68 850.35 909.54 842.96 914.6 838.2 923.92 849.25 924.49 849.93 933.32 860.4 959.2 891.1 972.65 907.05 983.4 919.8 1001 935 1023.93 923.82 1036.43 917.73 1036.95 917.47 1050.6 910.82 1060.36 935.79 1080 986"/><polygon class="cls-11" points="1080 998.6 1080 1080 713.73 1079.98 601.96 1079.97 530.6 1079.97 531.08 1079.68 531.09 1079.68 531.19 1079.62 531.58 1079.39 532.02 1079.13 532.36 1078.93 532.77 1078.69 549.15 1069.02 564.03 1060.23 585.14 1047.77 591.21 1044.19 601.01 1038.4 604.08 1036.59 604.26 1036.49 607.26 1034.71 613.29 1031.16 615.14 1030.06 617.6 1028.61 619.24 1027.64 620.53 1026.88 637.44 1016.9 638.62 1016.2 645.91 1011.9 652.96 1007.73 658.75 1004.32 662.54 1002.08 678.6 992.6 686.37 991.37 686.47 991.35 693.69 990.2 728.49 984.68 753.44 980.72 760.18 979.65 767.3 978.52 779.37 976.6 782.74 973.85 783 973.64 807.96 953.28 836.43 930.06 838.1 928.7 920.33 957.89 931.1 961.71 940.77 968.28 963.07 983.45 973 990.2 1008.2 986 1080 998.6"/><polygon class="cls-7" points="1080 1045.1 1080 1080 1045.71 1079.98 607.48 1079.72 566.9 1079.7 533.58 1079.68 531.08 1079.68 450.49 1079.63 428.57 1079.62 363.3 1079.58 316.55 1079.55 285.3 1079.54 224.28 1079.5 176.47 1079.47 175.03 1079.47 142.1 1079.45 131.35 1079.45 42.27 1079.39 36.41 1079.39 20.88 1079.38 2.14 1079.37 0 1079.37 0.09 1079.35 0.15 1079.33 0.84 1079.15 3.38 1078.47 22.84 1073.3 28.09 1071.91 38.5 1069.15 65.94 1061.86 79.66 1058.21 127.97 1045.38 129.03 1045.1 159.27 1043.52 168.84 1043.01 168.98 1043.01 284.59 1036.95 287.87 1035.88 359.23 1012.6 362.6 1011.5 384.3 1009.2 400.51 1007.48 405.86 1006.91 405.89 1006.91 428.22 1004.54 480.9 998.95 481.4 998.9 497.67 999.86 558.04 1003.43 560.8 1003.6 565.29 1003.86 568.69 1004.06 572.23 1004.27 573.44 1004.34 579.78 1004.72 584.87 1005.02 586.75 1005.13 593 1005.5 595.2 1005.39 599.09 1005.2 599.37 1005.19 599.89 1005.16 617.02 1004.32 617.58 1004.29 642.83 1003.05 651.6 1002.62 662.54 1002.08 684.12 1001.02 684.26 1001.01 687.99 1000.83 723.57 999.08 739.4 998.3 873.8 998.3 918.35 1013.39 930.79 1017.6 948.2 1023.5 1001.22 1018.77 1015.4 1017.5 1080 1045.1"/><polygon class="cls-11" points="571.05 1003.33 593.25 1021.03 590.25 1055.03 536.19 1073.43 475.8 1078.91 601.38 1080 711.4 1075.03 779.37 1061.63 719 1057.03 671.4 1061.63 627.59 1041.78 599.6 1015.43 571.05 1003.33"/><polygon class="cls-10" points="599.6 1004.27 614.6 1003.3 626.65 1008.38 636.5 1015.7 654.5 1038.7 762.6 1046 880.77 1036.32 892.88 1015.23 920.53 1013.23 958.7 1029.5 929.51 1064 844.1 1061.6 773.6 1064.9 737.91 1069.77 654.8 1052 617.9 1051.1 602.9 1028 597.5 1012.6 599.6 1004.27"/><polygon class="cls-11" points="316.65 1026.82 249.33 1049.03 175.12 1080 420.85 1079.79 479.3 1079.48 371 1071.22 309.5 1053.21 316.65 1026.82"/><polygon class="cls-12" points="287.87 1035.88 222.05 1060.2 170.4 1055.2 168.73 1042.12 287.87 1035.88"/><polygon class="cls-13" points="261.7 1046.1 245.1 1045.1 231.9 1047 202.6 1047 180.2 1048.7 148.7 1062.2 131.3 1079.49 175.12 1080 261.7 1046.1"/><polygon class="cls-10" points="237.7 1055.5 224.75 1078.67 224.48 1079.14 224.28 1079.5 224.21 1079.62 224.2 1079.64 224.02 1079.96 224 1080 175.12 1080 175.13 1079.98 175.33 1079.72 175.4 1079.62 175.51 1079.47 175.62 1079.32 176.15 1078.62 186.8 1064.35 202.04 1058.26 210 1055.08 233.94 1055.44 234.89 1055.46 237.69 1055.5 237.7 1055.5"/><path class="cls-14" d="M923.3,1058.6l-13.8-2.1-24.3,2.1-36-3.3-48,3.3-21.83,3-27.44-12.2-41-2.2-41.5-1.55-24.8.35s-12.91-4.92-22-13c-8.74-7.74-17.42-15.35-17.86-15.5-.9-.3-5.1-13.22-5.1-13.22l268.62.17,27.09,13,14.46,9.8,21.93,6Z" transform="translate(0 0)"/><g id="trees"><polygon class="cls-15" points="197.69 935.48 184.31 1001.32 211.31 1001.31 197.69 935.48 197.69 935.48"/><polygon class="cls-16" points="178.23 952.23 168.81 998.57 187.81 998.56 178.23 952.23 178.23 952.23"/><polygon class="cls-16" points="216.49 928.79 203.11 994.63 230.11 994.62 216.49 928.79 216.49 928.79"/><polygon class="cls-17" points="253.58 926.58 240.2 992.42 267.2 992.41 253.58 926.58 253.58 926.58"/><polygon class="cls-16" points="165.49 892.14 164.01 899.45 167.01 899.45 165.49 892.14 165.49 892.14"/><polygon class="cls-16" points="169.14 897.39 167.66 904.7 170.66 904.7 169.14 897.39 169.14 897.39"/><polygon class="cls-16" points="174.04 902.29 172.56 909.6 175.56 909.6 174.04 902.29 174.04 902.29"/><polygon class="cls-16" points="182.49 906.64 181.01 913.95 184.01 913.95 182.49 906.64 182.49 906.64"/><polygon class="cls-16" points="196.09 908.89 194.61 916.2 197.61 916.2 196.09 908.89 196.09 908.89"/><polygon class="cls-16" points="191.19 911.39 189.71 918.7 192.71 918.7 191.19 911.39 191.19 911.39"/><polygon class="cls-16" points="193.69 911.39 192.21 918.7 195.21 918.7 193.69 911.39 193.69 911.39"/><polygon class="cls-16" points="195.74 912.55 194.26 919.86 197.26 919.86 195.74 912.55 195.74 912.55"/><polygon class="cls-16" points="199.54 913.4 198.06 920.71 201.06 920.71 199.54 913.4 199.54 913.4"/><polygon class="cls-16" points="207.59 911.89 206.11 919.21 209.11 919.21 207.59 911.89 207.59 911.89"/><polygon class="cls-16" points="205.49 913.95 204.01 921.27 207.01 921.27 205.49 913.95 205.49 913.95"/><polygon class="cls-16" points="188.19 919.26 186.71 926.58 189.71 926.58 188.19 919.26 188.19 919.26"/><polygon class="cls-16" points="158.09 933.46 156.61 940.78 159.61 940.78 158.09 933.46 158.09 933.46"/><polygon class="cls-16" points="154.99 946.96 153.51 954.28 156.51 954.28 154.99 946.96 154.99 946.96"/><polygon class="cls-16" points="188.19 948.58 186.71 955.89 189.71 955.89 188.19 948.58 188.19 948.58"/><polygon class="cls-16" points="185.79 950.08 184.31 957.39 187.31 957.39 185.79 950.08 185.79 950.08"/><polygon class="cls-16" points="182.49 951.18 181.01 958.5 184.01 958.49 182.49 951.18 182.49 951.18"/><polygon class="cls-16" points="180.99 943.98 179.51 951.3 182.51 951.3 180.99 943.98 180.99 943.98"/><polygon class="cls-16" points="210.67 943.3 209.18 950.62 212.18 950.62 210.67 943.3 210.67 943.3"/><polygon class="cls-16" points="230.77 937.89 229.28 945.2 232.28 945.2 230.77 937.89 230.77 937.89"/><polygon class="cls-16" points="249.07 933.46 247.58 940.78 250.58 940.78 249.07 933.46 249.07 933.46"/><polygon class="cls-16" points="236.77 927.06 235.28 934.38 238.28 934.38 236.77 927.06 236.77 927.06"/><polygon class="cls-16" points="221.77 923.4 220.28 930.72 223.28 930.72 221.77 923.4 221.77 923.4"/><polygon class="cls-16" points="214.37 920.3 212.88 927.62 215.88 927.62 214.37 920.3 214.37 920.3"/><polygon class="cls-16" points="208.49 927.06 207.01 934.38 210.01 934.38 208.49 927.06 208.49 927.06"/><polygon class="cls-16" points="202.13 937.89 200.64 945.2 203.64 945.2 202.13 937.89 202.13 937.89"/><polygon class="cls-16" points="268.77 918.38 264.8 937.89 272.8 937.88 268.77 918.38 268.77 918.38"/><polygon class="cls-16" points="263.82 928.13 259.85 947.64 267.85 947.64 263.82 928.13 263.82 928.13"/><polygon class="cls-16" points="290.07 919.73 286.1 939.24 294.1 939.24 290.07 919.73 290.07 919.73"/><polygon class="cls-16" points="302.35 903.75 296.4 933.01 308.4 933 302.35 903.75 302.35 903.75"/><polygon class="cls-16" points="282.07 924.83 278.1 944.34 286.1 944.34 282.07 924.83 282.07 924.83"/><polygon class="cls-16" points="315.77 911.48 311.8 930.99 319.8 930.99 315.77 911.48 315.77 911.48"/><polygon class="cls-16" points="332.12 895.13 328.15 914.64 336.15 914.64 332.12 895.13 332.12 895.13"/><polygon class="cls-16" points="333.32 916.82 329.35 936.33 337.35 936.33 333.32 916.82 333.32 916.82"/><polygon class="cls-16" points="271.79 940.33 264.85 974.47 278.85 974.46 271.79 940.33 271.79 940.33"/><polygon class="cls-18" points="120.63 856.68 76.51 1073.72 165.51 1073.67 120.63 856.68 120.63 856.68"/><polygon class="cls-10" points="770.3 764.72 758.9 895.62 721.3 1005.72 820.13 1005.67 787.4 864.8 770.3 764.72 770.3 764.72"/><polygon class="cls-11" points="916.24 810 907.31 853.89 925.31 853.89 916.24 810 916.24 810"/><polygon class="cls-11" points="915.97 733.19 910.51 760.01 921.51 760.01 915.97 733.19 915.97 733.19"/><polygon class="cls-11" points="897.9 748.67 892.45 775.49 903.45 775.49 897.9 748.67 897.9 748.67"/><polygon class="cls-11" points="939.59 751.31 934.14 778.13 945.14 778.13 939.59 751.31 939.59 751.31"/><polygon class="cls-11" points="950.59 775.49 945.14 802.32 956.14 802.31 950.59 775.49 950.59 775.49"/><polygon class="cls-11" points="1012.79 763.49 1007.34 790.32 1018.34 790.31 1012.79 763.49 1012.79 763.49"/><polygon class="cls-11" points="1009.59 779.89 1004.14 806.72 1015.14 806.71 1009.59 779.89 1009.59 779.89"/><polygon class="cls-11" points="982.25 824.51 974.81 861.09 989.81 861.08 982.25 824.51 982.25 824.51"/><polygon class="cls-11" points="1038.08 719.95 1034.61 737.02 1041.61 737.02 1038.08 719.95 1038.08 719.95"/><polygon class="cls-11" points="1036.58 801.36 1032.61 820.87 1040.61 820.86 1036.58 801.36 1036.58 801.36"/><polygon class="cls-11" points="1040.08 770.14 1036.11 789.65 1044.11 789.64 1040.08 770.14 1040.08 770.14"/><polygon class="cls-11" points="1027.57 746.6 1022.11 773.42 1033.11 773.42 1027.57 746.6 1027.57 746.6"/><polygon class="cls-11" points="976.77 794.67 971.31 821.5 982.31 821.49 976.77 794.67 976.77 794.67"/><polygon class="cls-11" points="1069.26 779.89 1063.81 806.72 1074.81 806.71 1069.26 779.89 1069.26 779.89"/><polygon class="cls-11" points="927.44 831.95 918.51 875.84 936.51 875.83 927.44 831.95 927.44 831.95"/><polygon class="cls-11" points="964.24 866.35 955.31 910.25 973.31 910.24 964.24 866.35 964.24 866.35"/><polygon class="cls-11" points="1031.04 888.87 1022.11 932.77 1040.11 932.76 1031.04 888.87 1031.04 888.87"/><polygon class="cls-11" points="929.4 913.3 916.01 979.14 943.01 979.13 929.4 913.3 929.4 913.3"/><polygon class="cls-11" points="886.24 841.33 877.31 885.22 895.31 885.21 886.24 841.33 886.24 841.33"/><polygon class="cls-11" points="897.88 831.95 888.95 875.84 906.95 875.83 897.88 831.95 897.88 831.95"/><polygon class="cls-11" points="813.85 820.87 770.71 1033.03 857.71 1032.98 813.85 820.87 813.85 820.87"/><polygon class="cls-11" points="726.07 790.32 721.3 841.33 677.07 1031.32 776.08 1032.13 743.3 923.9 726.07 790.32 726.07 790.32"/><polygon class="cls-19" points="354.15 893 348.2 922.26 360.2 922.26 354.15 893 354.15 893"/><polygon class="cls-19" points="368.55 911.95 362.6 941.21 374.6 941.2 368.55 911.95 368.55 911.95"/><polygon class="cls-19" points="393.55 914.85 387.6 944.12 399.6 944.11 393.55 914.85 393.55 914.85"/><polygon class="cls-19" points="409.55 916.82 403.6 946.09 415.6 946.08 409.55 916.82 409.55 916.82"/><polygon class="cls-19" points="378.65 924.62 372.7 953.89 384.7 953.88 378.65 924.62 378.65 924.62"/><polygon class="cls-19" points="428.2 934.22 422.25 963.49 434.25 963.48 428.2 934.22 428.2 934.22"/><polygon class="cls-19" points="446.98 878.37 444 893 450 893 446.98 878.37 446.98 878.37"/><polygon class="cls-19" points="443.38 882.87 440.4 897.5 446.4 897.5 443.38 882.87 443.38 882.87"/><polygon class="cls-19" points="437.23 890.18 434.25 904.82 440.25 904.81 437.23 890.18 437.23 890.18"/><polygon class="cls-19" points="443.38 891.23 440.4 905.87 446.4 905.86 443.38 891.23 443.38 891.23"/><polygon class="cls-19" points="454.63 885.68 451.65 900.32 457.65 900.31 454.63 885.68 454.63 885.68"/><polygon class="cls-19" points="457.63 867.83 454.65 882.47 460.65 882.46 457.63 867.83 457.63 867.83"/><polygon class="cls-19" points="457.63 875.15 454.65 889.78 460.65 889.78 457.63 875.15 457.63 875.15"/><polygon class="cls-19" points="430.63 896.48 427.65 911.11 433.65 911.11 430.63 896.48 430.63 896.48"/><polygon class="cls-19" points="422.23 899.33 419.25 913.96 425.25 913.96 422.23 899.33 422.23 899.33"/><polygon class="cls-19" points="424.9 904.63 421.93 919.26 427.93 919.26 424.9 904.63 424.9 904.63"/><polygon class="cls-19" points="467.32 865.14 464.34 879.78 470.34 879.77 467.32 865.14 467.32 865.14"/><polygon class="cls-19" points="472.72 875.55 469.74 890.18 475.74 890.18 472.72 875.55 472.72 875.55"/><polygon class="cls-19" points="464.32 891.23 461.34 905.87 467.34 905.86 464.32 891.23 464.32 891.23"/><polygon class="cls-19" points="442.57 909.51 439.59 924.14 445.59 924.14 442.57 909.51 442.57 909.51"/><polygon class="cls-19" points="514.12 865.14 511.14 879.78 517.14 879.77 514.12 865.14 514.12 865.14"/><polygon class="cls-19" points="529.27 867.83 526.29 882.47 532.29 882.46 529.27 867.83 529.27 867.83"/><polygon class="cls-19" points="531.52 875.15 528.54 889.78 534.54 889.78 531.52 875.15 531.52 875.15"/><polygon class="cls-19" points="542.98 876.6 540 891.23 546 891.23 542.98 876.6 542.98 876.6"/><polygon class="cls-19" points="553.17 880.98 550.2 895.62 556.2 895.61 553.17 880.98 553.17 880.98"/><polygon class="cls-19" points="568.92 885.68 565.95 900.32 571.95 900.31 568.92 885.68 568.92 885.68"/><polygon class="cls-19" points="565.92 889.16 562.95 903.8 568.95 903.79 565.92 889.16 565.92 889.16"/><polygon class="cls-19" points="580.17 888.3 577.2 902.93 583.2 902.93 580.17 888.3 580.17 888.3"/><polygon class="cls-19" points="590.23 893 587.25 907.63 593.25 907.63 590.23 893 590.23 893"/><polygon class="cls-19" points="568.02 912.65 565.05 927.28 571.05 927.28 568.02 912.65 568.02 912.65"/><polygon class="cls-19" points="536.15 917.37 531.54 940.03 540.84 940.03 536.15 917.37 536.15 917.37"/><polygon class="cls-19" points="506.18 930.43 501.57 953.1 510.87 953.09 506.18 930.43 506.18 930.43"/><polygon class="cls-19" points="489.22 946.48 486.24 961.11 492.24 961.11 489.22 946.48 489.22 946.48"/><polygon class="cls-20" points="85.29 839 36.29 1080 135.12 1079.95 85.29 839 85.29 839"/><polygon class="cls-10" points="669.33 872.9 668.57 911.22 663.77 937.2 653.72 948.86 648.68 973.62 641.07 1011.9 681.77 1011.88 690.33 974.47 684.46 946.09 682.17 914.8 669.33 872.9 669.33 872.9"/></g><g id="fronttree"><polygon class="cls-21" points="175.12 1079.98 175.12 1080 0 1080 0 1079.98 0.09 1079.59 0.14 1079.37 0.15 1079.33 0.34 1078.47 0.84 1076.19 9.78 1035.65 15.84 1008.13 20.58 986.66 20.66 986.28 35.28 919.94 44 880.4 45.65 866.53 45.65 866.5 77.6 597.8 101.6 722 108.3 751 141.87 896.19 151.4 937.4 153.89 952.39 154.21 954.28 155.67 963.06 155.73 963.42 161.13 995.87 164.62 1016.91 166.98 1031.05 168.82 1042.12 168.97 1043.01 170.6 1052.82 171 1055.26 174.89 1078.62 175.01 1079.33 175.03 1079.47 175.06 1079.62 175.07 1079.72 175.11 1079.92 175.12 1079.98"/><polygon class="cls-22" points="107.6 1031 81.22 1050.54 68.6 1059.89 65.94 1061.86 43.46 1078.51 42.27 1079.39 41.96 1079.62 41.67 1079.84 41.54 1079.93 41.53 1079.94 36.3 1079.95 20.31 1079.97 13.84 1079.98 13.11 1079.98 0.84 1080 0 1080 0 1079.98 0.09 1079.59 0.14 1079.37 0.15 1079.33 0.34 1078.47 0.84 1076.19 9.78 1035.65 15.84 1008.13 20.58 986.66 20.66 986.28 35.28 919.94 44 880.4 45.65 866.53 45.65 866.5 77.6 597.8 87.5 746.6 82.55 798.47 77.6 850.4 71.14 890.36 67.51 912.76 57.8 972.8 58.03 973.07 63.09 978.99 63.36 979.3 83.17 1002.45 88.79 1009.01 89.5 1009.84 93.31 1014.3 107.6 1031"/><polygon class="cls-15" points="108.32 750.97 45.64 866.52 140.6 955.32 20.3 1079.98 175.12 1079.92 151.4 937.32 108.32 750.97"/></g><g id="kyack"><polygon class="cls-23" points="223.7 1020.08 228.07 1018.73 254.56 1013.43 260.84 1013.29 261.05 1017.23 255.04 1022.61 244.59 1026.44 227.19 1026.86 220.05 1024.06 221.31 1021.31 223.7 1020.08"/><polygon class="cls-24" points="221.69 1021.47 221.31 1023.77 227.31 1025.72 244.35 1025.1 252.61 1021.32 260.55 1015.98 260.84 1013.29 221.69 1021.47"/><polygon class="cls-25" points="223.13 1021.17 221.31 1023.77 228.79 1024.75 234.52 1024.75 244.03 1023.93 252.61 1021.32 259.31 1016.13 260.17 1013.43 251.26 1014.34 237.9 1017.15 227.93 1019.3 223.13 1021.17"/><polygon class="cls-26" points="225.04 1020.81 222.05 1023.93 229.03 1024.75 244.03 1023.93 252.61 1021.32 258.34 1016.68 258.18 1013.85 246.34 1015.48 230.9 1019.09 225.04 1020.81"/><polygon class="cls-27" points="222.92 1024.03 226.86 1020.28 251.7 1014.74 258.23 1014.74 256.89 1017.85 244.03 1023.93 228.79 1024.75 222.92 1024.03"/><polygon class="cls-23" points="245.23 1015.61 256.64 1018.61 254.4 1020.42 242.02 1016.29 245.23 1015.61"/><polygon class="cls-26" points="242.02 1016.29 242.02 1016.74 253.5 1020.69 254.1 1020.32 242.02 1016.29"/><path class="cls-9" d="M220.05,1024.06l-.93,3.34,1.63,1.45,8.1,1.4s7.45,1.28,7.67,1.28,15.13-3.88,15.13-3.88l9.4-4.55,3.95-5.3-4.16-4.51.21,3.94-3.18,2.85-2.83,2.53-10.38,4-17.47.24Z" transform="translate(0 0)"/></g><g id="tent"><path class="cls-28" d="M403.6,1001.6s54.7,2,75.7-7l15.3,41.42s-48.1,7.76-72.35,8.71Z" transform="translate(0 0)"/><path class="cls-29" d="M403.6,1001.75s-21.3,39.55-22.3,40c0,0,27.2,2.36,41.15,3Z" transform="translate(0 0)"/><polygon class="cls-7" points="381.3 1041.75 381.68 1041.98 429.4 1071.4 539 1046 492.32 1029.89 494.6 1036.05 461.61 1040.84 422.25 1044.76 381.3 1041.75"/></g><polygon id="rock" class="cls-4" points="595.4 1008.5 543 1008.5 539 1015.1 578.6 1026.49 587.25 1048.7 624.8 1046.3 633.5 1036.54 595.4 1008.5"/><polygon class="cls-30" points="540 1015.39 556.81 1005.48 563.6 994.2 570.2 991.6 586.25 996.6 606.2 1016.2 633.5 1036.54 622.2 1040.4 581.2 1036.54 558.4 1016.6 540 1015.39"/><path class="cls-10" d="M578.6,1041.75l15-6,21.2,1.6,22,4.35,9.4,8.65h-25s-29,1.54-29,2.87S578.6,1041.75,578.6,1041.75Z" transform="translate(0 0)"/><polygon class="cls-31" points="556.81 1005.48 568.05 1011.9 567.28 1024.81 576.8 1019.69 584.6 1031.32 595.2 1032.94 602.58 1036.48 617.6 1036.54 633.5 1036.54 599.6 1015.4 589.4 1016 582.8 1000 575.6 996.6 556.81 1005.48"/><polygon class="cls-32" points="580.1 1003.3 577.4 1015.4 591.05 1021.25 596.6 1017.35 586.75 1005.13 580.1 1003.3"/><polygon class="cls-32" points="563.25 1000.25 566.25 1005.55 577.75 998.55 581.45 994.55 574.76 993.8 563.25 1000.25"/><polygon class="cls-8" points="240.2 992.42 243.96 1004.83 262.49 1002.11 267.2 992.41 240.2 992.42"/><polygon class="cls-9" points="243.96 1004.83 246.8 1014.74 254.56 1013.43 256.64 1013.43 262.49 1002.11 243.96 1004.83"/><polygon class="cls-8" points="168.81 998.57 167.08 1015.75 184.31 1001.32 184.87 998.56 168.81 998.57"/><path class="cls-10" d="M284.34,987.36,392,968.3l32.92,16.8,44.82-18.9,49.76-5.09,33.7-15,100.52,2.77-7.83,38.5-72.74,5.1-2.95-.86-3.08,1.21-79.33,4.8H480.4l-1.1-3a74.13,74.13,0,0,1-8.9,2.78l-186.06-10Z" transform="translate(0 0)"/><polygon class="cls-12" points="369.67 985.71 414.05 992.75 471.8 991.53 500.5 989.65 571.05 983.9 645.42 987.85 573.86 992.74 570.2 991.6 567.12 992.81 546.29 994.07 488.01 997.6 480.4 997.6 479.3 994.63 470.4 997.41 432.5 997.35 370.4 997.35 322.4 992.41 281.3 990.34 369.67 985.71"/><polygon class="cls-4" points="678.2 667.25 666.2 732.2 652.86 777.34 643.4 830 670.1 815.6 696.6 795.6 708.8 806.8 716.62 791.67 697.9 765.8 678.2 667.25"/><rect class="cls-33" y="1079.98" width="1080" height="0.02"/></g><g id="stars"><path class="cls-34" d="M85.71,518.7a1.5,1.5,0,0,0,0-3,1.5,1.5,0,0,0,0,3Z" transform="translate(0 0)"/><path class="cls-34" d="M29,606.9a1.5,1.5,0,0,0,0-3,1.5,1.5,0,0,0,0,3Z" transform="translate(0 0)"/><path class="cls-34" d="M221,622.1a1.5,1.5,0,0,0,0-3,1.5,1.5,0,0,0,0,3Z" transform="translate(0 0)"/><path class="cls-34" d="M184.2,683.7a1.5,1.5,0,0,0,0-3,1.5,1.5,0,0,0,0,3Z" transform="translate(0 0)"/><path class="cls-34" d="M348.2,531.9a1.5,1.5,0,0,0,0-3,1.5,1.5,0,0,0,0,3Z" transform="translate(0 0)"/><path class="cls-34" d="M457.65,584.5a1.5,1.5,0,0,0,0-3,1.5,1.5,0,0,0,0,3Z" transform="translate(0 0)"/><path class="cls-34" d="M610.6,600.5a1.5,1.5,0,0,0,0-3,1.5,1.5,0,0,0,0,3Z" transform="translate(0 0)"/><path class="cls-34" d="M693.8,546.1a1.5,1.5,0,0,0,0-3,1.5,1.5,0,0,0,0,3Z" transform="translate(0 0)"/><path class="cls-34" d="M17.8,759.7a1.5,1.5,0,0,0,0-3,1.5,1.5,0,0,0,0,3Z" transform="translate(0 0)"/><path class="cls-34" d="M176,588.8a1,1,0,0,0,0-2,1,1,0,0,0,0,2Z" transform="translate(0 0)"/><path class="cls-34" d="M269.8,548.8a1,1,0,0,0,0-2,1,1,0,0,0,0,2Z" transform="translate(0 0)"/><path class="cls-34" d="M5.8,553.6a1,1,0,0,0,0-2,1,1,0,0,0,0,2Z" transform="translate(0 0)"/><path class="cls-34" d="M473.79,499a1,1,0,0,0,0-2,1,1,0,0,0,0,2Z" transform="translate(0 0)"/><path class="cls-34" d="M827.4,554.4a1,1,0,0,0,0-2,1,1,0,0,0,0,2Z" transform="translate(0 0)"/><path class="cls-34" d="M941,588.3a.5.5,0,0,0,0-1,.5.5,0,0,0,0,1Z" transform="translate(0 0)"/><path class="cls-34" d="M533,688.3a.5.5,0,0,0,0-1,.5.5,0,0,0,0,1Z" transform="translate(0 0)"/><path class="cls-34" d="M386.6,654.7a.5.5,0,0,0,0-1,.5.5,0,0,0,0,1Z" transform="translate(0 0)"/><path class="cls-34" d="M302.6,724.3a.5.5,0,0,0,0-1,.5.5,0,0,0,0,1Z" transform="translate(0 0)"/><path class="cls-34" d="M255.4,809.1a.5.5,0,0,0,0-1,.5.5,0,0,0,0,1Z" transform="translate(0 0)"/><path class="cls-34" d="M501.8,762.7a.5.5,0,0,0,0-1,.5.5,0,0,0,0,1Z" transform="translate(0 0)"/><path class="cls-34" d="M650.6,699.5a.5.5,0,0,0,0-1,.5.5,0,0,0,0,1Z" transform="translate(0 0)"/><path class="cls-34" d="M852.2,638.7a.5.5,0,0,0,0-1,.5.5,0,0,0,0,1Z" transform="translate(0 0)"/><path class="cls-34" d="M1047.4,564.3a.5.5,0,0,0,0-1,.5.5,0,0,0,0,1Z" transform="translate(0 0)"/><path class="cls-34" d="M300.2,551.5a.5.5,0,0,0,0-1,.5.5,0,0,0,0,1Z" transform="translate(0 0)"/><path class="cls-34" d="M130.6,559.5a.5.5,0,0,0,0-1,.5.5,0,0,0,0,1Z" transform="translate(0 0)"/><path class="cls-34" d="M137,583.5a.5.5,0,0,0,0-1,.5.5,0,0,0,0,1Z" transform="translate(0 0)"/><path class="cls-34" d="M247.58,526.1a.5.5,0,0,0,0-1,.5.5,0,0,0,0,1Z" transform="translate(0 0)"/><path class="cls-34" d="M20.2,720.3a.5.5,0,0,0,0-1,.5.5,0,0,0,0,1Z" transform="translate(0 0)"/><path class="cls-34" d="M35.4,724.3a.5.5,0,0,0,0-1,.5.5,0,0,0,0,1Z" transform="translate(0 0)"/><path class="cls-34" d="M49.8,665.1a.5.5,0,0,0,0-1,.5.5,0,0,0,0,1Z" transform="translate(0 0)"/><path class="cls-34" d="M162.6,710.7a.5.5,0,0,0,0-1,.5.5,0,0,0,0,1Z" transform="translate(0 0)"/><path class="cls-34" d="M186.6,720.3a.5.5,0,0,0,0-1,.5.5,0,0,0,0,1Z" transform="translate(0 0)"/><path class="cls-34" d="M353,677.1a.5.5,0,0,0,0-1,.5.5,0,0,0,0,1Z" transform="translate(0 0)"/><path class="cls-34" d="M385,626.7a.5.5,0,0,0,0-1,.5.5,0,0,0,0,1Z" transform="translate(0 0)"/><path class="cls-34" d="M313,693.1a.5.5,0,0,0,0-1,.5.5,0,0,0,0,1Z" transform="translate(0 0)"/><path class="cls-34" d="M319.4,665.1a.5.5,0,0,0,0-1,.5.5,0,0,0,0,1Z" transform="translate(0 0)"/><path class="cls-34" d="M272.2,743.5a.5.5,0,0,0,0-1,.5.5,0,0,0,0,1Z" transform="translate(0 0)"/><path class="cls-34" d="M226.6,738.7a.5.5,0,0,0,0-1,.5.5,0,0,0,0,1Z" transform="translate(0 0)"/></g><g id="birds"><path d="M195.46,802.09a5,5,0,0,1,4.74,4c.21,1.06,2.06.84,1.92-.26a4.71,4.71,0,0,1,3.6-5.19c1.23-.27.71-2.16-.52-1.89a6.63,6.63,0,0,0-5,7.08l1.92-.26a6.94,6.94,0,0,0-6.62-5.42,1,1,0,0,0,0,2Z" transform="translate(0 0)"/><path d="M179.27,800.88a6.48,6.48,0,0,1,6.16,5.18c.28,1.38,2.68,1.09,2.5-.34a6.13,6.13,0,0,1,4.68-6.75c1.6-.35.92-2.8-.67-2.45a8.62,8.62,0,0,0-6.56,9.2l2.5-.34a9,9,0,0,0-8.61-7,1.27,1.27,0,0,0,0,2.54Z" transform="translate(0 0)"/><path d="M159.5,796.57a9,9,0,0,1,8.52,7.16c.39,1.92,3.72,1.52,3.46-.46a8.5,8.5,0,0,1,6.49-9.35c2.21-.48,1.28-3.87-.94-3.39A12,12,0,0,0,168,803.27l3.46-.47a12.5,12.5,0,0,0-11.92-9.75c-2.26,0-2.27,3.49,0,3.52Z" transform="translate(0 0)"/><path d="M205.69,797.77a7.48,7.48,0,0,1,7.1,6c.32,1.6,3.1,1.26,2.89-.39a7.06,7.06,0,0,1,5.4-7.78c1.85-.4,1.07-3.23-.78-2.83a10,10,0,0,0-7.56,10.61l2.88-.39a10.42,10.42,0,0,0-9.93-8.12,1.47,1.47,0,0,0,0,2.93Z" transform="translate(0 0)"/><path d="M213.52,791.05a9,9,0,0,1,8.52,7.16c.38,1.92,3.72,1.52,3.46-.46A8.49,8.49,0,0,1,232,788.4c2.22-.48,1.28-3.88-.93-3.4A12,12,0,0,0,222,797.75l3.45-.47a12.51,12.51,0,0,0-11.91-9.76c-2.27,0-2.27,3.5,0,3.53Z" transform="translate(0 0)"/></g></svg>