<svg xmlns="http://www.w3.org/2000/svg" viewBox="0 0 64 33.26"><defs><style>.cls-1{fill:none;}.cls-2{fill:#fff;}</style></defs><title>neth</title><g id="layout"><rect class="cls-1" width="64" height="33.26"/></g><g id="Layer_1" data-name="Layer 1"><g id="E"><path class="cls-2" d="M21.2,25a9.71,9.71,0,0,1-.37,2.74.09.09,0,0,1,0,.05,2.65,2.65,0,0,0-2.38,2.74V19.43a2.66,2.66,0,0,0,2.38,2.74s0,0,0,0A9.61,9.61,0,0,1,21.2,25Z" transform="translate(0 -15.12)"/><path class="cls-2" d="M24,19.43a2.66,2.66,0,0,1-2.77,2.76l-.38,0a2.66,2.66,0,0,1-2.38-2.74Z" transform="translate(0 -15.12)"/><path class="cls-2" d="M24,30.49H18.44a2.65,2.65,0,0,1,2.38-2.74,2.34,2.34,0,0,1,.38,0A2.67,2.67,0,0,1,24,30.49Z" transform="translate(0 -15.12)"/><path class="cls-2" d="M24,25a2.66,2.66,0,0,1-2.77,2.76c-.12,0-.34.05-.45,0A10.45,10.45,0,0,0,21.2,25a11,11,0,0,0-.45-2.88c.11,0,.33.11.45.11A2.67,2.67,0,0,1,24,25Z" transform="translate(0 -15.12)"/></g><g id="N"><path class="cls-2" d="M14.06,28.41c-.49,1.27-1.28,2.09-2.15,2.09V19.44C11.91,24.15,12.92,26.86,14.06,28.41Z" transform="translate(0 -15.12)"/><path class="cls-2" d="M17.44,19.44V30.5c0-4.72-1-7.43-2.16-9C15.78,20.25,16.57,19.44,17.44,19.44Z" transform="translate(0 -15.12)"/><path class="cls-2" d="M17.44,30.5a1.77,1.77,0,0,1-.31,0,4.78,4.78,0,0,1-3.07-2.05c-1.14-1.55-2.15-4.26-2.15-9a1.62,1.62,0,0,1,.3,0,4.76,4.76,0,0,1,3.07,2.05C16.43,23.07,17.44,25.78,17.44,30.5Z" transform="translate(0 -15.12)"/></g><g id="T"><path class="cls-2" d="M27.73,25c0,.3,0,.62,0,.92-.21,2.62-1.36,4.61-2.72,4.61V19.43c1.36,0,2.51,2,2.72,4.6C27.72,24.33,27.73,24.65,27.73,25Z" transform="translate(0 -15.12)"/><path class="cls-2" d="M27.73,26.34a2.72,2.72,0,0,0,2.77-2.77H25a2.77,2.77,0,0,0,2.38,2.74A2.43,2.43,0,0,0,27.73,26.34Z" transform="translate(0 -15.12)"/></g><g id="R"><path class="cls-2" d="M31.5,25v5.52C33,30.49,34.27,28,34.27,25l-1.6-5" transform="translate(0 -15.12)"/><path class="cls-2" d="M32.67,20a1.71,1.71,0,0,0-.49-.35,2.15,2.15,0,0,0-.32-.13l-.36,0V25" transform="translate(0 -15.12)"/><path class="cls-2" d="M37,27.73a2.78,2.78,0,0,1-2.48,2.76h-.28V25A2.79,2.79,0,0,1,37,27.35C37,27.48,37,27.6,37,27.73Z" transform="translate(0 -15.12)"/><path class="cls-2" d="M37,22.19a2.66,2.66,0,0,1-.38,1.39,2.69,2.69,0,0,1-1,1,2.77,2.77,0,0,1-4.15-2.4c0-.13,0-.26,0-.38A2.75,2.75,0,0,1,32.67,20a2.64,2.64,0,0,1,1.6-.52,2.6,2.6,0,0,1,1.38.38,2.77,2.77,0,0,1,1,1,2.91,2.91,0,0,1,.35,1C37,21.93,37,22.06,37,22.19Z" transform="translate(0 -15.12)"/></g><g id="H"><path class="cls-2" d="M34.5,39c0,3-1.34,5.5-3,5.5v-11C33.16,33.5,34.5,36,34.5,39Z" transform="translate(0 -15.12)"/><path class="cls-2" d="M37.5,33.5v11c-1.66,0-3-2.46-3-5.5S35.84,33.5,37.5,33.5Z" transform="translate(0 -15.12)"/></g><g id="U"><path class="cls-2" d="M41,42.06c-.54,1.47-1.46,2.44-2.5,2.44v-11a2,2,0,0,1,1.47.71v6.41A1.53,1.53,0,0,0,41,42.06Z" transform="translate(0 -15.12)"/><path class="cls-2" d="M44.5,33.5v11c-1,0-2-1-2.5-2.44a1.53,1.53,0,0,0,1-1.44v-6.4A2,2,0,0,1,44.5,33.5Z" transform="translate(0 -15.12)"/></g><g id="N-2" data-name="N"><path class="cls-2" d="M47.66,42.44c-.5,1.28-1.29,2.09-2.16,2.09V33.47C45.5,38.18,46.51,40.89,47.66,42.44Z" transform="translate(0 -15.12)"/><path class="cls-2" d="M51,33.47V44.53c0-4.71-1-7.42-2.16-9C49.37,34.28,50.16,33.47,51,33.47Z" transform="translate(0 -15.12)"/><path class="cls-2" d="M51,44.53a1.62,1.62,0,0,1-.3,0,4.76,4.76,0,0,1-3.07-2.05c-1.15-1.55-2.16-4.26-2.16-9a1.62,1.62,0,0,1,.3,0,4.74,4.74,0,0,1,3.07,2.05C50,37.11,51,39.82,51,44.53Z" transform="translate(0 -15.12)"/></g><g id="U-2" data-name="U"><path class="cls-2" d="M41,21.94c-.54-1.47-1.46-2.44-2.5-2.44v11A2,2,0,0,0,40,29.79V23.38A1.53,1.53,0,0,1,41,21.94Z" transform="translate(0 -15.12)"/><path class="cls-2" d="M44.5,19.5v11A2,2,0,0,1,43,29.78v-6.4a1.53,1.53,0,0,0-1-1.44C42.54,20.47,43.46,19.5,44.5,19.5Z" transform="translate(0 -15.12)"/></g><path class="cls-2" d="M43,25v1.94a1.53,1.53,0,0,0-3.05.13h0V25Z" transform="translate(0 -15.12)"/></g></svg>