<svg xmlns="http://www.w3.org/2000/svg" viewBox="0 0 1080 1080"><defs><style>.cls-1{fill:#fff;}.cls-2{fill:#1b1464;}.cls-3,.cls-4,.cls-5{fill:none;}.cls-3,.cls-4{stroke:#1b1464;stroke-miterlimit:10;}.cls-3{stroke-width:13.06px;}.cls-4{stroke-width:17.81px;}</style></defs><title>streamicons</title><g id="subscriber"><polygon class="cls-1" points="520.56 552.04 520.56 835.94 631.81 894.42 610.56 770.55 700.56 682.82 576.18 664.75 520.56 552.04"/><path class="cls-1" d="M653.35,920.18,523.56,851.94,393.77,920.18l24.79-144.52-105-102.35,145.11-21.09,64.89-131.49,64.89,131.49,145.11,21.09-105,102.35ZM354.49,686.61,439,769l-20,116.35,104.49-54.93,104.49,54.93L608.1,769l84.53-82.4-116.82-17L523.56,563.77,471.32,669.63Z"/><polygon class="cls-1" points="523.56 552.04 523.56 835.94 412.32 894.42 433.56 770.55 343.56 682.82 467.94 664.75 523.56 552.04"/><polygon class="cls-1" points="580.7 729.82 580.7 749.18 533.25 749.18 533.25 796.64 513.88 796.64 513.88 749.18 466.43 749.18 466.43 729.82 513.88 729.82 513.88 682.36 533.25 682.36 533.25 729.82 580.7 729.82"/><polygon points="520.56 552.04 520.56 835.94 631.81 894.42 610.56 770.55 700.56 682.82 576.18 664.75 520.56 552.04"/><path class="cls-2" d="M653.35,920.18,523.56,851.94,393.77,920.18l24.79-144.52-105-102.35,145.11-21.09,64.89-131.49,64.89,131.49,145.11,21.09-105,102.35ZM354.49,686.61,439,769l-20,116.35,104.49-54.93,104.49,54.93L608.1,769l84.53-82.4-116.82-17L523.56,563.77,471.32,669.63Z"/><polygon class="cls-2" points="523.56 552.04 523.56 835.94 412.32 894.42 433.56 770.55 343.56 682.82 467.94 664.75 523.56 552.04"/><polygon class="cls-1" points="580.7 729.82 580.7 749.18 533.25 749.18 533.25 796.64 513.88 796.64 513.88 749.18 466.43 749.18 466.43 729.82 513.88 729.82 513.88 682.36 533.25 682.36 533.25 729.82 580.7 729.82"/></g><g id="donate"><path class="cls-3" d="M814.23,64.37A15.29,15.29,0,0,1,824.73,79v.14c0,1.93,4.79,35.48-9.44,68.56-7.24,9.61-31.17,14.6-45.18,13.28-14.69,1.38-35.06-.39-45.18-13.28-14.51-33.32-9.45-66.62-9.45-68.56v-.06a15.49,15.49,0,0,1,15.33-15.53c8.75,0,6.65,3.43,15.66,15.49,0,0,37.34,38.64,47.27,0A15.54,15.54,0,0,1,814.23,64.37Z"/><path d="M769.51,163.9V528.78s182.64,3.36,191-66.92c0,0-22.77-231.45-148-310.59Z"/><path class="cls-4" d="M960.7,461.86c0,44.47-85.06,66.92-190,66.92s-190-22.45-190-66.92c0,0,0-1.08.14-3.11a.38.38,0,0,0,0-.1c1.49-28.32,30.6-243.58,145.9-307.38,7.09,5.41,12.7,12.63,43,12.63s43-12.63,43-12.63c115.3,63.81,146.32,279,147.8,307.38a.38.38,0,0,0,0,.1C960.67,460.78,960.7,461.86,960.7,461.86Z"/><path class="cls-2" d="M769.51,163.89V528.77s-182.63,3.36-191-66.93c0,0,22.77-231.45,148-310.59Z"/><path class="cls-1" d="M728.49,319.44q-11.76-8.22-11.2-22.41.56-9,7.19-19.14T739,263.41a60,60,0,0,1,13.17-5.6v-3a14.56,14.56,0,0,1,4.48-10.36,15.13,15.13,0,0,1,9.71-4.58H775a15.16,15.16,0,0,1,9.72,4.58,14.6,14.6,0,0,1,4.48,10.36v3a67.18,67.18,0,0,1,13.26,5.7q7.84,4.2,14.47,14.38T824.11,297v6.72a14.58,14.58,0,0,1-4.48,10.37,15.12,15.12,0,0,1-9.71,4.57h-8.59a15.1,15.1,0,0,1-9.71-4.57,14.59,14.59,0,0,1-4.49-10.37q-.93-9.53-5.23-13.72a15.06,15.06,0,0,0-9.71-4.58h-3a15.09,15.09,0,0,0-9.72,4.58A14.6,14.6,0,0,0,755,300.39a6.29,6.29,0,0,0,3.36,5.6l54.54,43.7q11.76,8.22,11.2,22.41-.55,9-7.19,19.15t-14.57,14.47a59.48,59.48,0,0,1-13.16,5.6v3a14.64,14.64,0,0,1-4.48,10.37,15.14,15.14,0,0,1-9.72,4.57H766.4a15.12,15.12,0,0,1-9.71-4.57,14.6,14.6,0,0,1-4.48-10.37v-3A67.05,67.05,0,0,1,739,405.63q-7.85-4.2-14.47-14.38t-7.19-19.15v-6.72A14.52,14.52,0,0,1,721.77,355a15.06,15.06,0,0,1,9.71-4.58h8.59a15.06,15.06,0,0,1,9.71,4.58,14.57,14.57,0,0,1,4.49,10.36q.93,9.53,5.22,13.73a15.12,15.12,0,0,0,9.72,4.57h3a15.1,15.1,0,0,0,9.71-4.57,14.59,14.59,0,0,0,4.49-10.37,6.3,6.3,0,0,0-3.36-5.6Z"/><rect class="cls-5" width="1080" height="1080"/></g><g id="follow"><path d="M271,506.07l-.08-411.7S172,81,161,202c0,0,8.84,106,109,94.51L264,309S93,318,89,494l53,12.07Z"/><path class="cls-2" d="M270.91,315.92l.37,190.15H465.57l.28-9.43c0-1.68.06-3.45.06-5.4a194.75,194.75,0,0,0-185.7-194.79l-3-.12-.85,0-3.9-.11,0,0h-2.69l0,0-4.17.11-.85,0-3,.09,0,0A195,195,0,0,0,75.91,491.24c0,1.93,0,3.7.07,5.39l.27,9.44H241.71L222.3,486.66H95.39c2.31-92.3,74.3-166.17,166.51-170.78"/><path class="cls-2" d="M270.91,315.92A120.49,120.49,0,1,1,391.4,195.44,120.62,120.62,0,0,1,270.91,315.92Zm0-221.55a101.07,101.07,0,0,0,0,202.14"/><polygon class="cls-2" points="363.13 367.84 363.13 414.22 271.28 506.07 270.99 506.07 231.66 466.74 231.81 467.34 178.69 414.22 178.69 367.84 202.14 344.39 248.27 344.39 253.97 350.09 270.91 367.04 271.32 366.63 293.56 344.39 339.69 344.39 363.13 367.84"/><polygon class="cls-1" points="254.41 380.28 254.41 390.15 230.22 390.15 230.22 414.34 220.35 414.34 220.35 390.15 196.17 390.15 196.17 380.28 220.35 380.28 220.35 356.09 230.22 356.09 230.22 380.28 254.41 380.28"/><polygon points="363.13 367.84 363.13 414.22 271.28 506.07 270.99 506.07 270.91 367.04 271.32 366.63 293.56 344.39 339.69 344.39 363.13 367.84"/></g></svg>