<svg xmlns="http://www.w3.org/2000/svg" viewBox="0 0 64 64"><defs><style>.cls-1{fill:none;}.cls-2,.cls-3,.cls-4{fill:#fff;stroke:#000;stroke-miterlimit:10;}.cls-2{stroke-width:2.53px;}.cls-3{stroke-width:2.07px;}.cls-4{stroke-width:2.35px;}</style></defs><title>uparrow</title><g id="Layer_1" data-name="Layer 1"><rect class="cls-1" width="64" height="64"/></g><g id="Layer_2" data-name="Layer 2"><path class="cls-2" d="M43.15,36.16a12.67,12.67,0,0,0-9.81-18.63A12.65,12.65,0,0,0,20.87,36.16H13l9.5-16.47L32,3.24l9.5,16.45L51,36.16Z"/><rect class="cls-3" x="25.67" y="36.16" width="12.67" height="20.27"/><path class="cls-2" d="M33.34,17.53a12.67,12.67,0,0,1,9.81,18.63,12.85,12.85,0,0,1-4.82,4.94V36.16H25.67V41.1a12.67,12.67,0,0,1,7.67-23.57Z"/><path class="cls-2" d="M38.33,36.16V41.1a12.7,12.7,0,0,1-12.66,0V36.16Z"/><circle class="cls-4" cx="32" cy="56.43" r="6.33"/></g></svg>