<?xml version="1.0" encoding="UTF-8"?>
<svg id="base" xmlns="http://www.w3.org/2000/svg" viewBox="0 0 689.78 551.58">
  <defs>
    <style>
      .cls-1 {
        fill: #fff;
        stroke: #000;
        stroke-width: 10px;
      }

      .cls-2 {
        fill: none;
        stroke: #231f20;
      }
    </style>
  </defs>
  <path class="cls-2" d="M576.91,5l-19.34,1.73c6.27-1.14,12.74-1.73,19.34-1.73Z"/>
  <path class="cls-2" d="M576.91,546.58c-6.6,0-13.07-.59-19.34-1.73l19.34,1.73Z"/>
  <path class="cls-1" d="M576.91,5l-19.34,1.73L67.33,50.54c-34.42,0-62.33,27.91-62.33,62.33V438.71c0,34.42,27.91,62.33,62.33,62.33l490.24,43.81,19.34,1.73c59.57,0,107.87-48.3,107.87-107.87V112.87c0-59.57-48.3-107.87-107.87-107.87ZM254.37,389.08V162.5l196.63,113.29-196.63,113.29Z"/>
</svg>