<?xml version="1.0" encoding="utf-8"?>
<!-- Generator: Adobe Illustrator 23.1.0, SVG Export Plug-In . SVG Version: 6.00 Build 0)  -->
<svg version="1.1" id="Layer_1" xmlns="http://www.w3.org/2000/svg" xmlns:xlink="http://www.w3.org/1999/xlink" x="0px" y="0px"
	 viewBox="0 0 64 64" style="enable-background:new 0 0 64 64;" xml:space="preserve">
<style type="text/css">
	.st0{fill:#FFFFFF;stroke:#000000;stroke-width:1.08;stroke-miterlimit:10;}
	.st1{fill:none;stroke:#000000;stroke-miterlimit:10;}
	.st2{fill:none;stroke:#000000;stroke-width:1.08;stroke-miterlimit:10;}
	.st3{fill:none;}
</style>
<title>about</title>
<circle class="st0" cx="32" cy="32" r="28.2"/>
<path class="st1" d="M25.6,15l0.2,1.4C25.6,16,25.6,15.5,25.6,15z"/>
<path class="st1" d="M38.4,15c0,0.5-0.1,1-0.2,1.4L38.4,15z"/>
<path class="st2" d="M38.4,15l-0.2,1.4l-2.8,23.9c0,1.9-1.6,3.5-3.5,3.5s-3.5-1.6-3.5-3.5l-2.8-23.9L25.6,15c0-3.6,2.9-6.4,6.4-6.4
	S38.4,11.4,38.4,15z"/>
<circle class="st2" cx="32" cy="51" r="3.5"/>
<rect class="st3" width="64" height="64"/>
</svg>
