<svg id="graphics" xmlns="http://www.w3.org/2000/svg" viewBox="0 0 45.15 55.3"><title>graphics</title><path d="M11.87,9.24A95.89,95.89,0,0,1,11.93,23c-.25,4.19-.67,8.36-.92,12.54a52.31,52.31,0,0,0,.16,10.69,15.69,15.69,0,0,0,3.3,8.06,15.11,15.11,0,0,0,8.33,4.61c5,1.15,10.29.93,15.36.43,3.65-.36,7.27-.91,10.88-1.57l3.16-.61a4.26,4.26,0,0,0,1.27-.34,2.52,2.52,0,0,0,.9-1,13.48,13.48,0,0,0,1.11-4.34,57.55,57.55,0,0,0,.46-6.81,125.88,125.88,0,0,0-1-17.89A92.45,92.45,0,0,0,51.22,9.09c-.39-1.19-.83-2.37-1.32-3.52-.22-.51-.9-.18-.94.25a.76.76,0,0,1,.14-.27s0,0,0,0l-.13,0a2.53,2.53,0,0,1-.62.06A21.75,21.75,0,0,1,46,5.55c-2.53-.17-5.06-.44-7.59-.63-6.25-.49-12.75-.9-18.93.38-2.67.55-5.54,1.5-7.41,3.59-.43.47.27,1.18.7.7,1.68-1.85,4.19-2.71,6.56-3.24a43.91,43.91,0,0,1,9.43-.86c5.83,0,11.6.68,17.41,1.07a15.77,15.77,0,0,0,2.57.06c.53,0,1.21-.15,1.27-.8L49,6.07a70,70,0,0,1,4.24,16.26A133.38,133.38,0,0,1,54.93,40.4c.06,2.55,0,5.1-.12,7.65a31.38,31.38,0,0,1-.74,5.55,7.81,7.81,0,0,1-.56,1.65c-.19.38-.34.65-.63.75,0,0,.09,0,0,0a2.7,2.7,0,0,1-.39.08l-1.62.33-3,.56c-1.85.33-3.7.62-5.57.88a62.81,62.81,0,0,1-16.71.55C22.29,58,18.86,57,16.33,54.77a13,13,0,0,1-3.89-7.09,38.1,38.1,0,0,1-.55-9.89c.17-4,.56-8,.85-11.94a117.9,117.9,0,0,0,.34-13.29c0-1.11-.11-2.21-.21-3.32,0-.64-1-.64-1,0Z" transform="translate(-10.81 -4.45)"/><path d="M28,27.82v2.12a.5.5,0,0,0,1,0v-.42a.5.5,0,0,0-1,0v.42a.5.5,0,0,0,1,0V27.82a.5.5,0,0,0-1,0Z" transform="translate(-10.81 -4.45)"/><path d="M32.37,27.73c0,.39,0,.78,0,1.17a5.39,5.39,0,0,0,0,1.27.5.5,0,0,0,.61.35.52.52,0,0,0,.35-.62v0c0-.09,0,.07,0,.07a.41.41,0,0,1,0-.11c0-.09,0-.19,0-.28s0-.44,0-.67c0-.38,0-.76,0-1.14a.5.5,0,1,0-1,0Z" transform="translate(-10.81 -4.45)"/><path d="M40.54,25.91a12.85,12.85,0,0,0-1.17-1l-.5.86a3.51,3.51,0,0,1,1.55,2.15,9.85,9.85,0,0,1,.4,3.78c-.21,2.78-1.47,5.69-4,7.13a8.19,8.19,0,0,1-4.91.88,14.79,14.79,0,0,1-3.33-.78,17.84,17.84,0,0,1-3.95-1.8,7.35,7.35,0,0,1-2.51-4.29,10.53,10.53,0,0,1,.07-5.26,8.13,8.13,0,0,1,2.84-4.38,9,9,0,0,1,6-1.59,16.52,16.52,0,0,1,2.1.27c.63.13.89-.84.26-1a12.11,12.11,0,0,0-7.5.59,8.55,8.55,0,0,0-4.1,4.2,11,11,0,0,0,1.1,11.08,6.49,6.49,0,0,0,.91,1,8.64,8.64,0,0,0,2.07,1.13,21.88,21.88,0,0,0,3.94,1.45,11,11,0,0,0,6.14,0A9.1,9.1,0,0,0,41.66,33c.41-2.4.35-5.87-1.64-7.63a3.23,3.23,0,0,0-.65-.44.5.5,0,0,0-.5.86c.35.27.64.57,1,.87s1.18-.27.7-.7Z" transform="translate(-10.81 -4.45)"/><path d="M25.18,38.94a20.38,20.38,0,0,1-1.56,3.74c-.69,1.45-1.41,2.9-2,4.41-.94,2.55-1.44,5.74,1.16,7.48,2,1.34,4.72,1.42,7,1.38a.5.5,0,0,0,0-1c-2.72,0-7.67-.08-8-3.75a9.1,9.1,0,0,1,.74-3.84c.52-1.4,1.18-2.74,1.82-4.08a23.48,23.48,0,0,0,1.71-4.08.5.5,0,0,0-1-.26Z" transform="translate(-10.81 -4.45)"/><path d="M26.69,46.49C25.64,48,27.1,50,28,51.26c.56.77,1.18,1.5,1.71,2.29.11.16.21.31.3.47l.13.23s.12.25.1.19a1.85,1.85,0,0,1,.12.4c0-.14,0,0,0,.08s0,0,0,0a.23.23,0,0,1,0,.11c.06-.1-.09,0,0,0-.14.09,0,0-.1.08s0,0-.16.08l-.28.07a7.65,7.65,0,0,1-1.91,0c-.64-.06-.64.94,0,1,.92.09,2.28.26,3.05-.41a1.5,1.5,0,0,0,.15-1.87,13.14,13.14,0,0,0-1.5-2.2,20,20,0,0,1-1.76-2.52,3.62,3.62,0,0,1-.49-1.28,1.24,1.24,0,0,1,.2-.92c.36-.53-.5-1-.86-.5Z" transform="translate(-10.81 -4.45)"/><path d="M27.12,40.28c0,.09,0-.12,0-.06v.08a.28.28,0,0,1,0,.09c0,.14,0-.07,0,0S27,40.8,27,41a20.34,20.34,0,0,0-.26,2.06.5.5,0,0,0,.5.5.51.51,0,0,0,.5-.5c0-.2,0-.4.05-.6l0-.27,0-.12c0-.16,0,.09,0-.06s.09-.56.14-.85.08-.46.11-.7a1.14,1.14,0,0,0,0-.45.5.5,0,0,0-.61-.35.5.5,0,0,0-.35.61Z" transform="translate(-10.81 -4.45)"/><path d="M37.06,39.3a62.31,62.31,0,0,0,.77,6.83,6.64,6.64,0,0,1-1.67,5.38,23.25,23.25,0,0,1-4.66,3.84l.38-.05a1.09,1.09,0,0,0-.3-.07.51.51,0,0,0-.26.93,2.12,2.12,0,0,0,.69.21c.51.13,1,.24,1.54.32a17.4,17.4,0,0,0,4.72.24A7.86,7.86,0,0,0,42.94,55a7.45,7.45,0,0,0,2-5.77c-.16-4.54-2.2-9-4.2-13-.29-.58-1.15-.07-.86.5,1.78,3.58,3.56,7.47,4,11.49.21,1.94.08,4.19-1.27,5.72-2,2.28-5.66,2.23-8.37,1.81-.59-.09-1.19-.21-1.77-.35l-.51-.13c-.13,0-.25-.14-.08,0l-.25.93c-.25,0-.09,0,0,0,.41.06.66-.2,1-.43.5-.34,1-.7,1.48-1.06a15.66,15.66,0,0,0,3.7-3.7c1.4-2.13,1.2-4.42.8-6.81a28.35,28.35,0,0,1-.5-5,.5.5,0,0,0-1,0Z" transform="translate(-10.81 -4.45)"/><path d="M28.29,35.48c.54,0,1.07.12,1.6.15a7.9,7.9,0,0,0,2.47-.25.5.5,0,0,0-.26-1,6.93,6.93,0,0,1-2.27.2c-.51,0-1-.12-1.54-.14a.5.5,0,0,0-.5.5.51.51,0,0,0,.5.5Z" transform="translate(-10.81 -4.45)"/><path d="M32.81,21.57a12.86,12.86,0,0,0,3,1.82,12,12,0,0,1,3.57,2.67c.43.48,1.13-.23.71-.71a12.92,12.92,0,0,0-3.61-2.74,13.7,13.7,0,0,1-3-1.74c-.47-.44-1.17.26-.7.7Z" transform="translate(-10.81 -4.45)"/><path d="M23.4,37s0,.07,0,.1c0-.14,0-.11,0,0a1.49,1.49,0,0,1,0,.21c0,.15,0,.3,0,.46,0,.33,0,.66-.05,1l0,.25s0,.08,0,.12,0,.15,0-.05v.06c0,.16-.05.32-.08.48a8.08,8.08,0,0,1-.2.85l-.12.33c.08-.22,0,0,0,0a.41.41,0,0,1-.07.11l0,.05c0,.06.11-.12,0-.05l0,0c-.06.07.09-.07.06,0l0,0,.08,0c-.07,0,.17,0,.09,0s.18,0,.1,0l.08,0c-.08,0,.06,0,.06.06l0,0s0,0,0,0,.08.13.06.08a.75.75,0,0,1-.07-.12l0-.06,0,.07,0-.05a5.26,5.26,0,0,1-.25-1l-.06-.39v-.09l0-.22c0-.34-.07-.69-.09-1-.07-.92-.11-1.84-.14-2.77,0-.27,0-.54,0-.82a.51.51,0,0,0-.5-.5.51.51,0,0,0-.5.5A44.16,44.16,0,0,0,22,39.71a7.14,7.14,0,0,0,.25,1.22,1.39,1.39,0,0,0,.5.79.69.69,0,0,0,.87-.13A1.9,1.9,0,0,0,24,40.9,8.32,8.32,0,0,0,24.37,39a8,8,0,0,0,0-2,3.11,3.11,0,0,0,0-.32.5.5,0,0,0-.62-.35.52.52,0,0,0-.35.61Z" transform="translate(-10.81 -4.45)"/><path d="M41.16,29c0,1.87.13,3.73.33,5.58.11,1.06.25,2.11.41,3.15a5.59,5.59,0,0,0,.31,1.75.7.7,0,0,0,.4.28c.81.24,1.29-.53,1.51-1.18a10.55,10.55,0,0,0,.35-3.22,30.7,30.7,0,0,0-.41-4.59A27.82,27.82,0,0,0,40.82,21c-1.49-2.53-3.84-4.85-7-4.78a9.5,9.5,0,0,0-5,1.77A27.21,27.21,0,0,0,23,23.61c-.55.68-1.08,1.37-1.6,2.07-.38.52.49,1,.87.51a35.84,35.84,0,0,1,5.3-6,12.67,12.67,0,0,1,4.45-2.71,6,6,0,0,1,6.36,1.86,18.38,18.38,0,0,1,3.75,7.47,31.89,31.89,0,0,1,1.29,8.22,12.82,12.82,0,0,1-.18,2.81c0,.17-.09.33-.14.5a.62.62,0,0,1-.13.29c-.1.2,0,0-.12.17,0,0,0,0,0,0s0,0,0,0l.23.3a67.06,67.06,0,0,1-1-10.1.5.5,0,0,0-1,0Z" transform="translate(-10.81 -4.45)"/><path d="M33.49,18.25a8.7,8.7,0,0,0,2.38-2.1A37.27,37.27,0,0,0,39.6,8.91l-.92-.12c1.16,4.22,2.1,8.5,3.37,12.69a29.93,29.93,0,0,0,2.16,5.75c.48.89,1.62,2.12,2.41.76a7.41,7.41,0,0,0,.68-2.87,58,58,0,0,0,.27-6.18c0-.67-.92-.62-1,0A16.73,16.73,0,0,0,54.16,35.1c.55.33,1.05-.53.5-.87a15.75,15.75,0,0,1-7.09-15.29h-1c0,1.8,0,3.6-.19,5.39a11.73,11.73,0,0,1-.48,2.82,1,1,0,0,1-.12.3,1,1,0,0,0-.08.14c0,.06,0-.09,0,0s.07,0,.1,0-.25-.21-.29-.27A4.58,4.58,0,0,1,45,26.6a32,32,0,0,1-2-5.44c-.69-2.3-1.31-4.62-1.91-6.95-.48-1.89-.93-3.8-1.44-5.68-.11-.38-.74-.53-.92-.12a39.35,39.35,0,0,1-3.63,7.11A7.15,7.15,0,0,1,33,17.39c-.53.35,0,1.22.51.86Z" transform="translate(-10.81 -4.45)"/><path d="M23.44,42.45a9.5,9.5,0,0,1-1.21.1c-.65,0-1.3.1-1.94.2a33.92,33.92,0,0,0-7.43,2.33c-.59.24-.33,1.21.26,1a33.53,33.53,0,0,1,7.43-2.32c1.05-.17,2.12-.11,3.16-.3.63-.12.36-1.08-.27-1Z" transform="translate(-10.81 -4.45)"/><path d="M42.69,41.87a6.36,6.36,0,0,0,2.22.09,10.85,10.85,0,0,1,3.66.48c1.52.42,3,1,4.47,1.52.6.23.86-.74.27-1a30.93,30.93,0,0,0-6.56-2,12.84,12.84,0,0,0-2.63,0A3,3,0,0,1,43,40.91a.5.5,0,0,0-.26,1Z" transform="translate(-10.81 -4.45)"/><path d="M52.81,44.11l.16,0-.11,0a2.56,2.56,0,0,1,.35.22c.31.2.63.4.95.58a.5.5,0,1,0,.5-.86l-.94-.58a2.67,2.67,0,0,0-.36-.22,1.33,1.33,0,0,0-.28-.1.53.53,0,0,0-.39.05.53.53,0,0,0-.23.3.5.5,0,0,0,.35.61Z" transform="translate(-10.81 -4.45)"/><path d="M26.71,43a6.63,6.63,0,0,1-.07,1,22.92,22.92,0,0,0,.07,2.87.51.51,0,0,0,.5.5.5.5,0,0,0,.5-.5A22.92,22.92,0,0,1,27.64,44a6.63,6.63,0,0,0,.07-1,.51.51,0,0,0-.5-.5.5.5,0,0,0-.5.5Z" transform="translate(-10.81 -4.45)"/><path d="M27.24,42.06c-.72,1.69,1.66,2.46,2.88,2.66a11.42,11.42,0,0,0,7.54-1.43.5.5,0,0,0-.5-.86,10.65,10.65,0,0,1-6.32,1.39,5.76,5.76,0,0,1-2.12-.57,1.61,1.61,0,0,1-.52-.39.36.36,0,0,1-.11-.22s0-.1,0-.07c.25-.59-.61-1.1-.86-.51Z" transform="translate(-10.81 -4.45)"/><path d="M31.21,42.35a.71.71,0,0,0-.14.1.5.5,0,0,0-.08.12h0a.78.78,0,0,0-.09.33c0,.11,0,.21,0,.32l0-.13c0,.11,0,.21-.07.32a.59.59,0,0,0,.05.39.53.53,0,0,0,.3.23.59.59,0,0,0,.39,0,.61.61,0,0,0,.23-.3,2.82,2.82,0,0,0,.09-.57c0-.08,0-.16,0-.23V43a.09.09,0,0,1,0-.05l-.05.12a0,0,0,0,1,0,0l-.08.1,0,0-.1.08h0a.5.5,0,0,0,.23-.3.44.44,0,0,0,0-.2.32.32,0,0,0-.06-.18.5.5,0,0,0-.3-.23.46.46,0,0,0-.38.05Z" transform="translate(-10.81 -4.45)"/><path d="M26.86,47.34a8.58,8.58,0,0,0,.92,2.44,11.53,11.53,0,0,1,1,3.1.5.5,0,0,0,.62.35.51.51,0,0,0,.35-.61,11.57,11.57,0,0,0-1-3.12c-.19-.43-.4-.86-.58-1.3-.07-.17-.14-.33-.2-.5l-.06-.22s0-.27,0-.14a.51.51,0,0,0-.5-.5.51.51,0,0,0-.5.5Z" transform="translate(-10.81 -4.45)"/><path d="M13.72,23.31a11.53,11.53,0,0,0,0-1.44A10.14,10.14,0,0,1,14,19.55l-.35.35c-.19.07-.43-.12-.49-.18.08.09,0,0,0,0s.08.24.12.36c.11.4.2.8.28,1.2.25,1.12.49,2.24.76,3.36.19.79,1,5,2.53,4a2.31,2.31,0,0,0,.76-1.27,17,17,0,0,0,.57-2.66h-1A3.32,3.32,0,0,0,19.43,27c1.55.28,2.67-1.23,3.34-2.4a.5.5,0,0,0-.86-.5c-.43.73-1.24,2.11-2.29,1.92-.74-.14-1.2-1-1.44-1.63-.15-.41-.88-.54-1,0a16.89,16.89,0,0,1-.57,2.63,2.23,2.23,0,0,1-.25.59.5.5,0,0,1-.08.12c.05-.07,0,0,0,0s0,0,0,0h.09c.07,0,.1.06,0,0h0l-.06-.07c0-.05,0,.09,0,0s-.1-.16-.14-.24a7,7,0,0,1-.51-1.3c-.38-1.23-.65-2.5-.93-3.76a23,23,0,0,0-.67-2.84,1,1,0,0,0-.24-.46.53.53,0,0,0-.9.29,9.15,9.15,0,0,0-.29,2.39,13.36,13.36,0,0,1,0,1.55c-.07.63.93.63,1,0Z" transform="translate(-10.81 -4.45)"/></svg>