<svg xmlns="http://www.w3.org/2000/svg" viewBox="0 0 59.04 55.2"><defs><style>.cls-1{fill:#fff;}.cls-2{fill:none;stroke:#000;stroke-miterlimit:10;}</style></defs><title>home</title><g id="color"><polygon class="cls-1" points="50.11 25.73 50.13 54.63 7.99 49.57 7.99 20.68 1.41 19.89 29.47 1.34 39.14 10.05 39.27 3.81 46.06 3.81 46.06 16.29 57.53 26.62 50.11 25.73"/></g><g id="Layer_1" data-name="Layer 1"><path class="cls-2" d="M44.64,41.74V57l8.43,1V29.67A12.87,12.87,0,0,1,44.64,41.74Zm8.41-12.68-4-.49-6.79-.81L27.87,26h0L15.41,24.54,10.93,24V52.94l21.35,2.57V39.8a12.83,12.83,0,0,1-4.94-10.13,12.57,12.57,0,0,1,.52-3.59L42.21,27.8l6.79.81,4,.49c0,.19,0,.38,0,.57v-.61Z" transform="translate(-2.94 -3.37)"/><polygon class="cls-2" points="41.7 33.07 41.7 53.62 29.34 52.14 29.34 31.59 41.7 33.07"/><path class="cls-2" d="M53.05,29.06v0l-4-.49-6.79-.81L27.86,26.08a.06.06,0,0,1,0,0h0l14.34,1.73,6.79.81Z" transform="translate(-2.94 -3.37)"/><path class="cls-2" d="M53.07,29.67a12.87,12.87,0,0,1-8.43,12.07v-5.3L32.28,35V39.8a12.83,12.83,0,0,1-4.94-10.13,12.57,12.57,0,0,1,.52-3.59L42.21,27.8l6.79.81,4,.49C53.06,29.29,53.07,29.48,53.07,29.67Z" transform="translate(-2.94 -3.37)"/><path class="cls-2" d="M53.07,29.06v.61c0-.19,0-.38,0-.57l-4-.49-6.79-.81L27.86,26.08a12.57,12.57,0,0,0-.52,3.59A12.83,12.83,0,0,0,32.28,39.8v11l-16.87-2V24.54L27.87,26l14.34,1.72,6.79.81,4,.49Z" transform="translate(-2.94 -3.37)"/><path class="cls-2" d="M53.07,29.67V53.32l-8.43-1V41.74A12.87,12.87,0,0,0,53.07,29.67Z" transform="translate(-2.94 -3.37)"/><polygon class="cls-2" points="57.53 26.62 50.13 25.73 50.11 25.73 46.06 25.24 39.27 24.43 24.92 22.71 12.47 21.22 7.99 20.68 1.41 19.89 12.92 12.28 27.35 2.74 29.47 1.34 39.27 10.17 46.06 16.29 57.53 26.62"/><circle class="cls-2" cx="21.43" cy="9.46" r="8.96"/><polygon class="cls-2" points="46.06 3.81 46.06 25.24 39.27 24.43 39.27 3.81 46.06 3.81"/></g></svg>