<?xml version="1.0" encoding="UTF-8"?>
<svg id="Layer_2" data-name="Layer 2" xmlns="http://www.w3.org/2000/svg" viewBox="0 0 860.46 890.12">
  <defs>
    <style>
      .cls-1 {
        fill: #fff;
      }

      .cls-1, .cls-2 {
        stroke: #000;
        stroke-width: 10px;
      }

      .cls-2 {
        fill: none;
      }
    </style>
  </defs>
  <path class="cls-2" d="M710.11,5l-17.11,.91c5.62-.6,11.33-.91,17.11-.91Z"/>
  <path class="cls-1" d="M704.81,5.28h-.03c-.68-.04-1.35-.08-2.04-.11h-.04c-2.46-.11-4.93-.17-7.42-.17l-17.1,.91L135.52,34.65C63.44,34.65,5,93.09,5,165.18V724.94c0,72.09,58.44,130.53,130.52,130.53l542.66,28.74,17.1,.91c2.49,0,4.96-.06,7.42-.17h.04c.69-.03,1.36-.07,2.04-.11h.03c84.04-4.93,150.65-74.63,150.65-159.9V165.18c0-85.27-66.61-154.97-150.65-159.9ZM430.23,662.62c-120.15,0-217.56-97.41-217.56-217.56s97.41-217.56,217.56-217.56,217.56,97.41,217.56,217.56-97.41,217.56-217.56,217.56Zm262.77-378.09c-43.66,0-79.06-35.4-79.06-79.06s35.4-79.06,79.06-79.06,79.06,35.4,79.06,79.06-35.4,79.06-79.06,79.06Z"/>
  <path class="cls-2" d="M710.11,885.12c-5.78,0-11.49-.31-17.11-.91l17.11,.91Z"/>
</svg>