<svg id="Layer_2" data-name="Layer 2" xmlns="http://www.w3.org/2000/svg" viewBox="0 0 1080 1080"><defs><style>.cls-1{fill:#10422c;}.cls-2{fill:#638b57;}.cls-3{fill:#638457;}.cls-4{fill:#639757;}.cls-5{fill:#103825;}.cls-6{fill:#a67c52;}.cls-7{fill:#578d6c;}.cls-8{fill:#57a16c;}.cls-9{fill:#ccc;}.cls-10{fill:#999;}.cls-11{fill:#c7b299;}.cls-12{fill:#424833;}.cls-13{fill:#10362c;}.cls-14{fill:#103e2c;}.cls-15{fill:#104a2c;}.cls-16{fill:gray;}.cls-17{fill:#4f5236;}.cls-18{fill:#10342c;}.cls-19{fill:#fbb03b;}.cls-20{fill:#604c13;}.cls-21{fill:#794f13;}.cls-22{fill:#ed1c24;}.cls-23{fill:#4a4f42;}.cls-24{fill:#10522c;}.cls-25{fill:#3b6a4f;}.cls-26{fill:none;}.cls-27{fill:#998675;}</style></defs><title>montinArtboard 1</title><rect class="cls-1" width="1080" height="1080"/><path class="cls-2" d="M0-1.38v171.2l17-40.23,48.16-10c-2.39,6.77-5.27,13.5-8.65,18.54-.55.83-1.11,1.6-1.69,2.33-7.06,10.53-6.45,28.25-8.79,43H56.87c1.73-2,2.56-4.58,5-11.05-.64-2.14,3.38-14.51,10.82-21.09,5.07-4.48,13.64-3.43,16-5.75-.47,0,7-5.72,13-8.36,5.14-2.26,8.94-1.46,9.53-1.77l67.06,19.77-28.94-21.18s-.11-.2-.46-.76l-3.48-5.72c-2.93-4.84-5.44-9-7.63-12.58h31.06l37.68,24.63,54.08,9.59h0l.74.13-8.66,5.84L317,153.82s131.29-30.58,132.35-33.13l57.76,7.47-6.58-6,15.53-15.68,45.53-1.56,60.35-9.23L650.76,94l35.18-18.29,80.47-14.36L968.29,22.76l60.24-6.11L1080,5.82v-7.2Z"/><path class="cls-3" d="M1080,0,801.14,50.78l-4.52.82-185,33.68L505.29,104.64l-8.52,1.56L398.91,124l-25.19,4.59-.09,0L260.5,149.22h0l-54.08-9.59L168.73,115H137.67c2.19,3.58,4.7,7.74,7.63,12.58l3.48,5.72c.35.56.42.73.46.76l28.94,21.18-67.06-19.77c-.59.31-4.39-.49-9.53,1.77-6,2.64-13.45,8.38-13,8.36-2.32,2.32-10.89,1.27-16,5.75-7.44,6.58-11.46,19-10.82,21.09-2.4,6.47-3.23,9.09-5,11.05h15.4L52,187.18l-7,1.26-29.71,5.41L0,196.65V183.49H46c2.34-14.74,1.73-32.46,8.79-43,.58-.73,1.14-1.5,1.69-2.33,3.38-5,6.26-11.77,8.65-18.54L17,129.59,0,169.82v-116L59,43.14h0l117.12-21.2,1.16-.21,2.73-.49L222.12,0l0,0,2.59-1.31L239.37,0l.23,0L464.88,20.18,596.6,13.82,696.77,10.9,762.6,23.35Z"/><path class="cls-4" d="M65.16,119.63c-2.39,6.77-5.27,13.5-8.65,18.54l-4.92.59L16.76,179.12l-.41,4.37H0V169.82l17-40.23Z"/><path class="cls-4" d="M186.16,162.75l2.84-13.4-43.7-21.77c-2.93-4.84-5.44-9-7.63-12.58h31.06l37.68,24.63,54.08,9.59Z"/><polygon class="cls-4" points="261.24 149.35 252.58 155.19 252.57 155.19 228.3 155.71 189 175.47 190.92 183.49 181.77 183.49 186.16 162.75 260.49 149.22 260.5 149.22 261.24 149.35"/><path class="cls-1" d="M210.6,183.49l-16.95,11.43L177,206.16l-55,37.08L13.16,217.41,0,214.29v-30.8H46c2.34-14.74,1.73-32.46,8.79-43,.58-.73,1.14-1.5,1.69-2.33,3.38-5,6.26-11.77,8.65-18.54L87.56,115h50.11c2.19,3.58,4.7,7.74,7.63,12.58l3.48,5.72c.35.56.42.73.46.76l28.94,21.18-67.06-19.77c-.59.31-4.39-.49-9.53,1.77-6,2.64-13.45,8.38-13,8.36-2.32,2.32-10.89,1.27-16,5.75-7.44,6.58-11.46,19-10.82,21.09-2.4,6.47-3.23,9.09-5,11.05Z"/><path class="cls-2" d="M189,149.35l-2.84,13.4L72.27,183.49H56.87c1.73-2,2.56-4.58,5-11.05-.64-2.14,3.38-14.51,10.82-21.09,5.07-4.48,13.64-3.43,16-5.75-.47,0,7-5.72,13-8.36,5.14-2.26,8.94-1.46,9.53-1.77l67.06,19.77-28.94-21.18s-.11-.2-.46-.76l-3.48-5.72Z"/><path class="cls-2" d="M56.51,138.17c-.55.83-1.11,1.6-1.69,2.33-7.06,10.53-6.45,28.25-8.79,43H16.35l.41-4.37,34.83-40.36Z"/><polygon class="cls-2" points="186.16 162.75 181.77 183.49 72.27 183.49 186.16 162.75"/><path class="cls-5" d="M181.77,183.49,177,206.16l-3.79,17.92-48.94,74-2.43,3.68-34.7,52.49-5.58,8.43-17.44,26.4-7.24,10.94-8.09,12.24-37.64-46L9.24,259l3.92-41.59,2.21-23.56,1-10.36H46c2.34-14.74,1.73-32.46,8.79-43,.58-.73,1.14-1.5,1.69-2.33l88.79-10.59,3.48,5.72c.35.56.42.73.46.76l28.94,21.18-67.06-19.77c-.59.31-4.39-.49-9.53,1.77-6,2.64-13.45,8.38-13,8.36-2.32,2.32-10.89,1.27-16,5.75-7.44,6.58-11.46,19-10.82,21.09-2.4,6.47-3.23,9.09-5,11.05Z"/><path class="cls-6" d="M178.18,155.24l-67.06-19.77c-.59.31-4.39-.49-9.53,1.77-6,2.64-13.45,8.38-13,8.36-2.32,2.32-10.89,1.27-16,5.75-7.44,6.58-11.46,19-10.82,21.09-2.4,6.47-3.23,9.09-5,11.05A21.94,21.94,0,0,1,52,187.18c-1.92,1.21-4.47,2.78-8,5.11.39-1.24.73-2.52,1-3.85.37-1.6.68-3.25,1-4.95,2.34-14.74,1.73-32.46,8.79-43,.58-.73,1.14-1.5,1.69-2.33,3.38-5,6.26-11.77,8.65-18.54,2-5.61,3.66-11.26,5-16,.82-2.86,1.53-5.39,2.13-7.38l25.75,8.36c.08.15.8-.3,3.18-1.27,15.34-5.63,18.68-11.31,25-5,2.8,2.81,6.18,8,11.48,16.68,2.19,3.58,4.7,7.74,7.63,12.58l3.48,5.72c.35.56.42.73.46.76Z"/><polygon class="cls-7" points="161.24 75.94 100.06 115 37 91 0 53.82 0 0 175.12 0 180.06 48.65 161.24 75.94"/><polygon class="cls-8" points="20.36 -0.08 65.23 50.06 60.78 100.05 100.06 115 161.24 75.94 180.06 48.65 175.12 14.77 176.15 -1.38 20.36 -0.08"/><path class="cls-9" d="M401.87,123.94l-89.46,14.82s-13.29-59.52,43.76-73.17l653.29-52.94L779.37,54.76l-377.5,69.18Z"/><path class="cls-10" d="M353.6,67.71s40,4.35,45.36,56.71l-86.55,14.34S308.43,75.83,353.6,67.71Z"/><polygon class="cls-11" points="505.59 104.94 449.35 49.12 563.25 44.18 620.06 92.41 505.59 104.94"/><polygon class="cls-12" points="540 173.35 522.18 155 524.53 139.94 544.76 138.76 558.88 134.29 564.53 156.88 540 173.35"/><polygon class="cls-12" points="583.59 143.93 564.53 143.93 571.59 122.75 602.65 112.39 618.88 120.63 612.53 136.16 583.59 143.93"/><polygon class="cls-12" points="649 108.25 637.24 115.21 637.24 107.31 640.53 97.66 646.18 97.66 649 108.25"/><polygon class="cls-12" points="654.06 146.94 659.71 146.94 662.53 157.52 650.76 164.49 650.76 156.58 654.06 146.94"/><polygon class="cls-12" points="667.82 138.35 637.24 141.62 653.71 120.47 665.94 107.18 692.29 99.76 694.18 102.12 686.65 127 667.82 138.35"/><polygon class="cls-12" points="692.79 93.11 692.29 85.85 698.69 78.89 705.22 79.1 710.88 80.08 712.29 90.79 697.22 98.79 692.79 93.11"/><polygon class="cls-12" points="710.64 100.15 717.16 100.35 722.82 101.34 724.24 112.05 709.16 120.05 704.73 114.36 704.24 107.1 710.64 100.15"/><polygon class="cls-12" points="719.82 95 717.47 80.65 727.59 72.41 734.41 75.71 740.18 81.59 771.84 86.76 753.02 98.12 719.82 95"/><polygon class="cls-12" points="993.24 1080 53.8 1080 111.12 997.82 146.18 817.12 196.5 674.53 196.5 595.47 212.41 567.97 236.53 526.29 274.65 476.88 277.44 468.24 287.87 435.94 287.87 390.76 303.48 365.11 303.49 365.1 311.07 352.65 355.53 316.9 355.57 316.87 362.18 311.55 390.41 269.35 407.4 220.81 407.4 220.8 410.18 212.86 439.37 183.49 443.71 179.12 444.33 178.75 449.1 179.12 444.73 183.49 474.92 183.49 473.12 180.06 494.53 175.24 505.59 159.35 505.59 183.49 517.56 183.49 520.29 175.47 525.94 175.47 528.08 183.49 537.74 183.49 542.41 178.41 568.76 171 570.65 173.35 571.81 183.49 577 183.49 593.47 162.33 605.71 149.04 632.06 141.62 633.94 143.98 637.24 172.68 628.47 174.91 628.47 183.49 662.87 183.49 656.65 191.93 642.63 225.93 642.61 225.96 640.85 230.23 640.29 231.59 641.22 265.26 643.12 334.29 642.08 367.55 640.29 424.65 644.37 475.47 628.47 551.38 601 609.52 596 644.88 627.59 727.47 692.29 731 724.24 793.12 739.12 846.76 881.71 1004.88 993.24 1080"/><polygon class="cls-13" points="898.82 82.27 890.19 85.43 887.86 83.67 898.82 82.27"/><polygon class="cls-13" points="1030.25 71.4 898.82 82.27 919.82 79.59 1030.25 71.4"/><polygon class="cls-13" points="1080 183.49 1080 390.76 1051.12 390.76 910.09 321.59 740.18 303.24 640.85 230.23 640.29 229.82 642.61 225.96 642.63 225.93 668.1 183.49 1080 183.49"/><polygon class="cls-14" points="714.41 138.75 714.38 138.77 714.38 138.76 714.41 138.75"/><polygon class="cls-14" points="887.86 83.67 887.8 83.67 887.85 83.66 887.86 83.67"/><polygon class="cls-14" points="1080 229.24 1080 342.06 1017.59 301.82 917 289.12 784.65 269 695.71 208.65 702.43 183.49 1019.61 183.49 1080 229.24"/><polygon class="cls-15" points="1080 183.49 1080 289.12 1030.25 264.76 909.59 264.76 812.18 243.24 753.01 183.49 1080 183.49"/><polygon class="cls-16" points="448.86 208.31 417.8 218.67 410.74 239.85 429.8 239.85 458.74 232.08 465.09 216.55 448.86 208.31"/><polygon class="cls-16" points="618.88 120.63 612.53 136.16 583.59 143.93 564.53 143.93 571.59 122.75 602.65 112.39 618.88 120.63"/><polygon class="cls-16" points="505.59 159.35 505.59 189.47 483 198.88 474.92 183.49 473.12 180.06 494.53 175.24 505.59 159.35"/><polygon class="cls-16" points="628.47 172.17 628.47 202.28 605.88 211.7 596 192.87 617.41 188.05 620.59 183.49 626.15 175.5 628.47 172.17"/><polygon class="cls-16" points="564.53 156.88 540 173.35 522.18 155 524.53 139.94 544.76 138.76 558.88 134.29 564.53 156.88"/><polygon class="cls-16" points="573.94 202.06 560.04 205.59 553.43 207.27 544.29 209.59 513.71 212.86 530.18 191.71 537.74 183.49 542.41 178.41 568.76 171 570.65 173.35 571.81 183.49 573.94 202.06"/><polygon class="cls-16" points="637.24 172.68 628.47 174.91 626.15 175.5 607.59 180.21 577 183.49 593.47 162.33 605.71 149.04 632.06 141.62 633.94 143.98 637.24 172.68"/><polygon class="cls-16" points="694.18 102.12 686.65 127 667.82 138.35 637.24 141.62 653.71 120.47 665.94 107.18 692.29 99.76 694.18 102.12"/><polygon class="cls-16" points="771.84 86.76 753.02 98.12 719.82 95 717.47 80.65 727.59 72.41 734.41 75.71 740.18 81.59 771.84 86.76"/><polygon class="cls-16" points="724.24 112.05 709.16 120.05 704.73 114.36 704.24 107.1 710.64 100.15 717.16 100.35 722.82 101.34 724.24 112.05"/><polygon class="cls-16" points="712.29 90.79 697.22 98.79 692.79 93.11 692.29 85.85 698.69 78.89 705.22 79.1 710.88 80.08 712.29 90.79"/><polygon class="cls-17" points="595.82 208.31 569.47 215.72 557.24 229.01 540.76 250.17 571.35 246.89 601 239.36 597.71 210.66 595.82 208.31"/><polygon class="cls-17" points="506.86 229.47 480.51 236.89 468.27 250.18 451.8 271.34 482.39 268.06 512.04 260.53 508.74 231.83 506.86 229.47"/><polygon class="cls-16" points="528.76 186.06 517 193.02 517 185.12 517.56 183.49 520.29 175.47 525.94 175.47 528.08 183.49 528.76 186.06"/><polygon class="cls-16" points="461 190.75 457.71 200.4 457.71 208.31 469.47 201.34 466.65 190.75 461 190.75"/><polygon class="cls-16" points="649 108.25 637.24 115.21 637.24 107.31 640.53 97.66 646.18 97.66 649 108.25"/><polygon class="cls-16" points="623.35 210.11 620.06 219.76 620.06 227.67 631.82 220.7 629 210.11 623.35 210.11"/><polygon class="cls-16" points="662.53 157.52 650.76 164.49 650.76 156.58 654.06 146.94 659.71 146.94 662.53 157.52"/><polygon class="cls-18" points="44.06 365.11 30.77 378.06 44.06 397.88 120.77 410.88 228.3 397.88 303.48 365.11 355.64 316.8 336.76 289.12 48.77 364.29 44.06 365.11"/><polygon class="cls-16" points="554.22 204.94 550.93 214.59 550.93 222.49 562.69 215.53 559.87 204.94 554.22 204.94"/><polygon class="cls-16" points="537.41 262.56 534.12 272.21 534.12 280.11 545.88 273.15 543.06 262.56 537.41 262.56"/><polygon class="cls-4" points="252.57 155.19 210.6 183.49 190.92 183.49 189 175.47 228.3 155.71 252.57 155.19"/><polygon class="cls-14" points="402.77 175.55 382.51 183.49 319.18 208.31 198.15 213.72 197.51 211.06 193.65 194.92 190.92 183.49 254.62 183.49 294.41 167.21 402.77 175.55"/><polygon class="cls-15" points="449.1 179.12 444.73 183.49 407.4 220.8 407.4 220.81 398.96 229.24 348.05 224.08 280.42 244.9 280.4 244.9 237.7 258.06 225.64 256.7 223.07 256.41 223.06 256.41 167.57 250.17 197.51 211.06 202.2 204.94 254.62 183.49 294.41 167.21 402.77 175.55 444.33 178.75 449.1 179.12"/><polygon class="cls-13" points="649 253.12 637.24 271.47 628.47 318.06 636.91 369.98 660.26 359 656.65 284.18 660.26 263.71 650.76 256.65 649 253.12"/><polygon class="cls-2" points="327.21 19 231.82 19 196.5 51 305.24 67.71 348.88 67.71 356.17 65.59 453.87 53.6 449.35 49.12 587 42.41 627.59 37.35 591.71 22.77 505.59 19 442.65 24.65 364.06 19 327.21 19"/><polygon class="cls-19" points="422.45 53.35 453.87 53.6 449.35 49.12 553.1 44.89 489.35 42.41 410.74 48.06 422.45 53.35"/><polygon class="cls-16" points="422.45 60.22 469.82 75.71 497.04 106.5 505.59 104.94 457.1 56.81 422.45 60.22"/><polygon class="cls-20" points="35.18 314.24 81.59 311.55 90.03 315.59 148.92 285.5 256.64 243.24 355.64 250.17 361.12 270.06 336.76 289.12 332.53 320.56 287.87 346.29 235.47 374.59 150.1 378.82 71.41 397.88 35.18 354.47 35.18 314.24"/><polygon class="cls-21" points="90.03 315.59 48.77 332.53 78.41 354.76 87.56 378.06 136.65 378.06 210.76 369.98 280.65 342.06 327.21 320.56 336.76 280.65 355.64 274.34 355.64 250.17 256.64 243.24 90.03 315.59"/><polygon class="cls-21" points="175.12 394.29 134.18 401.35 111.12 413.35 97.71 430.29 158.88 422.53 185 410.88 175.12 394.29"/><polygon class="cls-22" points="153.18 271.73 157.49 265.9 160.72 263.8 170.05 262.83 173.18 264.13 171.88 267.28 166.87 268.49 162.5 268.49 158.78 270.76 156.19 272.7 153.18 271.73"/><polygon class="cls-9" points="158.78 270.76 161 273.59 163.18 279.9 162.24 288.06 161.88 295.82 170 293.53 176.35 289.12 173.18 284.53 169.82 279.76 167.57 271.65 164.35 268.49 162.5 268.49 158.78 270.76"/><polygon class="cls-22" points="91.68 294.22 95.59 288.94 98.52 287.04 106.97 286.16 109.8 287.33 108.63 290.19 104.09 291.29 100.13 291.29 96.76 293.34 94.42 295.1 91.68 294.22"/><polygon class="cls-9" points="96.76 293.34 98.77 295.9 100.74 301.63 99.89 309.02 99.69 313.44 106.92 313.97 112.68 309.98 109.8 305.82 106.77 301.5 104.72 294.14 101.81 291.29 100.13 291.29 96.76 293.34"/><path class="cls-13" d="M685.12,342.06c-1.06,2.12-34.36,55.82-34.36,55.82l5.89,72.3,3.61,93.17-9.5,69.53,34.36,80.83,59.54,58.23,72.81,110.12L989,1021.82l91-14.82Z"/><path class="cls-14" d="M702.29,378.06v91.76l-10,166.59,32,70.59,38.36,15.53,52.75,74.82,63.53,114.36,201.12,72V653.35s-96.65-4.23-98.06-9.88S965,496.65,965,496.65L854.88,390.76l-92.28-12.7Z"/><polygon class="cls-15" points="860.15 358.29 762.6 397.88 733.47 469.82 787.12 662.88 967.82 726.76 931.7 777.59 931.7 846.76 1009.46 891.94 1068.06 907.47 1080 865.12 1080 491 860.15 358.29"/><polygon class="cls-15" points="84.03 446.53 13.82 486.06 0 562.29 11 751.12 48.77 816.41 44.06 883.12 90.15 955.12 119.35 866.53 167.57 742.29 202.2 519.94 222.94 452.18 84.03 446.53"/><polygon class="cls-23" points="274.65 476.88 236.53 526.29 227.35 572.88 206.18 626.53 198.15 731 163.18 781.12 146.18 897.94 135.59 965.71 76.29 1063.12 91.68 1080 147.24 1030.29 173.18 944.53 206.53 875.71 224.53 750.76 243.59 673.47 261.24 614.18 288.06 540 318.76 476.88 369.59 378.06 369.59 342.06 343.12 342.06 308.33 378.06 294.41 436.29 276.41 470.18 274.65 476.88"/><polygon class="cls-23" points="640.29 482.53 627.59 546.76 589.94 581.35 593.76 646.52 612.4 747.94 662.53 764.88 712.29 853.82 771.84 915.94 850.65 992.18 931.7 1080 877.47 1080 813.94 1045.82 714.24 925.82 656.65 852.41 607.12 790.29 572.53 696.18 562.18 648.18 559.82 615.71 546.18 580.41 540 535.71 578.18 468.88 609.24 406.76 620.06 369.98 631.82 397.88 631.82 428.88 640.29 482.53"/><path class="cls-14" d="M277.47,412.29l-172.75,30H25.47l-5.65,34.59,80.92,29.65,29.88,18.71,71.58-5.3,51.27-32.47s19.77-19.06,20.47-21.18S277.47,412.29,277.47,412.29Z"/><polygon class="cls-24" points="4.95 520.37 135.57 503.35 178.13 536.18 214.66 570.06 158.13 662.18 168.13 744.76 94.98 798.76 4.95 651.06 4.95 520.37"/><polygon class="cls-25" points="714.38 138.77 702.43 183.49 668.1 183.49 682.65 159.24 714.38 138.77"/><polygon class="cls-8" points="791 121.82 740.18 170.53 753.01 183.49 702.43 183.49 714.38 138.77 714.41 138.75 812.18 103.24 887.8 83.67 887.86 83.67 890.19 85.43 791 121.82"/><polygon class="cls-4" points="1019.61 183.49 753.01 183.49 740.18 170.53 791 121.82 890.19 85.43 1019.61 183.49"/><polygon class="cls-4" points="1080 67.71 1080 183.49 1019.61 183.49 890.19 85.43 898.82 82.27 1030.25 71.4 1080 67.71"/><polygon class="cls-25" points="1080 44.18 1080 67.71 1030.25 71.4 919.82 79.59 898.82 82.27 887.86 83.67 887.85 83.66 887.8 83.67 778.1 97.66 714.41 138.75 714.38 138.76 714.38 138.77 682.65 159.24 668.1 183.49 662.87 183.49 685.94 152.18 711.35 129.12 762.6 99.76 875.59 75.71 978.65 63.24 1080 44.18"/><polygon class="cls-26" points="714.38 138.76 714.41 138.75 714.38 138.77 714.38 138.76"/><polygon class="cls-25" points="887.8 83.67 812.18 103.24 714.41 138.75 778.1 97.66 887.8 83.67"/><polygon class="cls-26" points="887.85 83.66 887.86 83.67 887.8 83.67 887.85 83.66"/><polygon class="cls-26" points="887.86 83.67 898.82 82.27 890.19 85.43 887.86 83.67"/><polygon class="cls-26" points="919.82 79.59 1030.25 71.4 898.82 82.27 919.82 79.59"/><path class="cls-27" d="M1028.53,16.65l-60.24,6.11L766.41,61.35,685.94,75.71,650.76,94l-28.82,1.71-60.35,9.23-45.53,1.56-15.53,15.68,6.58,6,8.95,8.13-71.73,42.46,4.77.37-4.37,4.37h30.19l-1.8-3.43,21.41-4.82,11.06-15.89v24.14h12l2.73-8h5.65l2.14,8h9.66l4.67-5.08L568.76,171l1.89,2.35,1.16,10.14H577l16.47-21.16L605.71,149l26.35-7.42,1.88,2.36,3.3,28.7-8.77,2.23v8.58h34.4l23.07-31.31,25.41-23.06L762.6,99.76l113-24.05L978.65,63.24,1080,44.18V5.82ZM540,173.35,522.18,155l2.35-15.06,20.23-1.18,14.12-4.47,5.65,22.59Zm72.53-37.19-28.94,7.77H564.53l7.06-21.18,31.06-10.36,16.23,8.24Zm24.71-28.85,3.29-9.65h5.65L649,108.25l-11.76,7Zm13.52,57.18v-7.91l3.3-9.64h5.65l2.82,10.58ZM686.65,127l-18.83,11.35-30.58,3.27,16.47-21.15,12.23-13.29,26.35-7.42,1.89,2.36Zm6.14-33.89-.5-7.26,6.4-7,6.53.21,5.66,1,1.41,10.71-15.07,8Zm16.37,26.94-4.43-5.69-.49-7.26,6.4-6.95,6.52.2,5.66,1,1.42,10.71ZM753,98.12,719.82,95l-2.35-14.35,10.12-8.24,6.82,3.3,5.77,5.88,31.66,5.17Z"/><polygon class="cls-26" points="494.53 175.24 505.59 159.35 505.59 183.49 474.92 183.49 473.12 180.06 494.53 175.24"/><polygon class="cls-26" points="525.94 175.47 528.08 183.49 517.56 183.49 520.29 175.47 525.94 175.47"/><polygon class="cls-26" points="540 173.35 522.18 155 524.53 139.94 544.76 138.76 558.88 134.29 564.53 156.88 540 173.35"/><polygon class="cls-26" points="570.65 173.35 571.81 183.49 537.74 183.49 542.41 178.41 568.76 171 570.65 173.35"/><polygon class="cls-26" points="583.59 143.93 564.53 143.93 571.59 122.75 602.65 112.39 618.88 120.63 612.53 136.16 583.59 143.93"/><polygon class="cls-26" points="633.94 143.98 637.24 172.68 628.47 174.91 628.47 183.49 577 183.49 593.47 162.33 605.71 149.04 632.06 141.62 633.94 143.98"/><polygon class="cls-26" points="646.18 97.66 649 108.25 637.24 115.21 637.24 107.31 640.53 97.66 646.18 97.66"/><polygon class="cls-26" points="659.71 146.94 662.53 157.52 650.76 164.49 650.76 156.58 654.06 146.94 659.71 146.94"/><polygon class="cls-26" points="692.29 99.76 694.18 102.12 686.65 127 667.82 138.35 637.24 141.62 653.71 120.47 665.94 107.18 692.29 99.76"/><polygon class="cls-26" points="712.29 90.79 697.22 98.79 692.79 93.11 692.29 85.85 698.69 78.89 705.22 79.1 710.88 80.08 712.29 90.79"/><polygon class="cls-26" points="722.82 101.34 724.24 112.05 709.16 120.05 704.73 114.36 704.24 107.1 710.64 100.15 717.16 100.35 722.82 101.34"/><polygon class="cls-26" points="740.18 81.59 771.84 86.76 753.02 98.12 719.82 95 717.47 80.65 727.59 72.41 734.41 75.71 740.18 81.59"/><polygon class="cls-25" points="516.06 136.29 444.33 178.75 402.77 175.55 489.35 141.62 507.11 128.16 516.06 136.29"/><path class="cls-8" d="M507.11,128.16l-17.76,13.46-86.58,33.93-108.36-8.34-39.79,16.28h-44l42-28.3h0L317,153.82s131.29-30.58,132.35-33.13Z"/><polygon class="cls-4" points="444.33 178.75 449.1 179.12 444.73 183.49 254.62 183.49 294.41 167.21 402.77 175.55 444.33 178.75"/></svg>