<svg id="Layer_2" data-name="Layer 2" xmlns="http://www.w3.org/2000/svg" viewBox="0 0 1080 1080"><defs><style>.cls-1{fill:#10422c;}.cls-2{fill:#10362c;}.cls-3{fill:#103825;}.cls-4{fill:#754c24;}.cls-5{fill:#032a21;}.cls-6{fill:#032221;}.cls-7{fill:#666;}.cls-8{fill:#4d4d4d;}.cls-9{fill:#a67c52;}.cls-10{fill:#424833;}.cls-11{fill:#103e2c;}.cls-12{fill:#104a2c;}.cls-13{fill:gray;}.cls-14{fill:#4f5236;}.cls-15{fill:#10342c;}.cls-16{fill:#a65b16;}.cls-17{fill:#604c13;}.cls-18{fill:#794f13;}.cls-19{fill:#ed1c24;}.cls-20{fill:#ccc;}.cls-21{fill:#4a4f42;}.cls-22{fill:#10522c;}</style></defs><title>montinArtboard 1</title><rect class="cls-1" width="1080" height="1080"/><polyline class="cls-2" points="0 196.65 0 53.82 180.06 21.23 224.75 -1.33 464.88 20.18 596.6 13.82 696.77 10.9 762.6 23.35 1080 0"/><polygon class="cls-1" points="261.24 149.35 206.41 139.63 168.73 115 87.56 115 17 129.59 0 169.82 0 214.29 121.98 243.24 261.24 149.35"/><polygon class="cls-3" points="51.59 138.76 16.77 179.12 9.23 259 11.12 366.29 48.77 412.29 173.18 224.08 189 149.35 145.3 127.58 51.59 138.76"/><path class="cls-4" d="M72.31,96.25c-3,9.9-8.64,33.15-17.49,44.25-8.54,12.74-5.85,36-10.76,51.79,14.67-9.78,12.67-6.08,17.77-19.85-.64-2.14,3.38-14.51,10.82-21.09,5.07-4.48,13.64-3.43,16-5.75-.47,0,7-5.72,13-8.36,5.14-2.26,8.94-1.46,9.53-1.77l67.06,19.77-28.94-21.18s-.11-.2-.46-.76c-30-49.25-21.46-39.54-47.54-30-2.38,1-3.1,1.42-3.18,1.27Z"/><polygon class="cls-5" points="161.24 75.94 100.06 115 37 91 0 53.82 0 0 175.12 0 180.06 48.65 161.24 75.94"/><polygon class="cls-6" points="20.36 -0.08 65.23 50.06 60.78 100.05 100.06 115 161.24 75.94 180.06 48.65 175.12 14.77 176.15 -1.38 20.36 -0.08"/><path class="cls-7" d="M401.87,123.94l-89.46,14.82s-13.29-59.52,43.76-73.17l653.29-52.94L779.37,54.76l-377.5,69.18"/><path class="cls-8" d="M353.6,67.71s40,4.35,45.36,56.71l-86.55,14.34S308.43,75.83,353.6,67.71Z"/><polygon class="cls-9" points="505.59 104.94 449.35 49.12 563.25 44.18 620.06 92.41 505.59 104.94"/><polygon class="cls-10" points="410.18 212.86 390.41 269.35 362.18 311.55 311.07 352.65 287.87 390.76 287.87 435.94 274.65 476.88 236.53 526.29 196.5 595.47 196.5 674.53 146.18 817.12 111.12 997.82 53.8 1080 993.24 1080 881.71 1004.88 739.12 846.76 724.24 793.12 692.29 731 627.59 727.47 596 644.88 601 609.52 628.47 551.38 644.37 475.47 640.29 424.65 643.12 334.29 640.29 231.59 656.65 191.93 685.94 152.18 711.35 129.12 762.6 99.76 875.59 75.71 978.65 63.23 1080 44.18 1080 5.82 1028.53 16.65 968.29 22.77 766.41 61.35 685.94 75.71 650.76 94 621.94 95.71 561.59 104.94 516.06 106.5 500.53 122.18 516.06 136.29 443.71 179.12 410.18 212.86"/><polygon class="cls-2" points="1080 67.71 919.82 79.59 778.1 97.66 682.65 159.24 640.29 229.82 740.18 303.24 910.09 321.59 1051.12 390.76 1080 390.76 1080 67.71"/><polygon class="cls-11" points="1080 342.06 1017.59 301.82 917 289.12 784.65 269 695.71 208.65 714.38 138.76 812.18 103.24 887.85 83.67 1080 229.24 1080 342.06"/><polygon class="cls-12" points="1030.24 71.4 898.82 82.27 791 121.82 740.18 170.53 812.18 243.24 909.59 264.76 1030.24 264.76 1080 289.12 1080 67.71 1030.24 71.4"/><polygon class="cls-13" points="448.86 208.31 417.8 218.67 410.74 239.85 429.8 239.85 458.74 232.08 465.09 216.55 448.86 208.31"/><polygon class="cls-13" points="602.65 112.39 571.59 122.75 564.53 143.93 583.59 143.93 612.53 136.16 618.88 120.64 602.65 112.39"/><polygon class="cls-13" points="505.59 159.35 494.53 175.24 473.12 180.06 483 198.88 505.59 189.47 505.59 159.35"/><polygon class="cls-13" points="628.47 172.17 617.41 188.05 596 192.87 605.88 211.7 628.47 202.28 628.47 172.17"/><polygon class="cls-13" points="544.76 138.76 524.53 139.94 522.18 155 540 173.35 564.53 156.88 558.88 134.29 544.76 138.76"/><polyline class="cls-13" points="568.76 171 542.41 178.41 530.18 191.71 513.71 212.86 544.29 209.59 573.94 202.06 570.65 173.35"/><polyline class="cls-13" points="632.06 141.63 605.71 149.04 593.47 162.33 577 183.49 607.59 180.21 637.24 172.68 633.94 143.98"/><polyline class="cls-13" points="692.29 99.76 665.94 107.18 653.71 120.47 637.24 141.63 667.82 138.35 686.65 127 694.18 102.12"/><polyline class="cls-13" points="734.41 75.71 727.59 72.41 717.47 80.65 719.82 95 753.02 98.12 771.84 86.77 740.18 81.59"/><polyline class="cls-13" points="717.16 100.35 710.63 100.15 704.24 107.1 704.73 114.36 709.16 120.05 724.24 112.05 722.82 101.34"/><polyline class="cls-13" points="705.22 79.1 698.69 78.89 692.29 85.84 692.79 93.11 697.22 98.79 712.29 90.79 710.88 80.08"/><polyline class="cls-14" points="595.82 208.31 569.47 215.72 557.24 229.01 540.76 250.17 571.35 246.89 601 239.36 597.71 210.66"/><polyline class="cls-14" points="506.86 229.47 480.51 236.89 468.27 250.18 451.8 271.34 482.39 268.06 512.04 260.53 508.74 231.83"/><polygon class="cls-13" points="520.29 175.47 517 185.12 517 193.03 528.76 186.06 525.94 175.47 520.29 175.47"/><polygon class="cls-13" points="461 190.75 457.71 200.4 457.71 208.31 469.47 201.34 466.65 190.75 461 190.75"/><polygon class="cls-13" points="640.53 97.66 637.24 107.31 637.24 115.21 649 108.25 646.18 97.66 640.53 97.66"/><polygon class="cls-13" points="623.35 210.11 620.06 219.76 620.06 227.67 631.82 220.7 629 210.11 623.35 210.11"/><polygon class="cls-13" points="654.06 146.94 650.76 156.58 650.76 164.49 662.53 157.52 659.71 146.94 654.06 146.94"/><polyline class="cls-15" points="44.06 365.11 30.77 378.06 44.06 397.88 120.77 410.88 228.3 397.88 303.48 365.11 355.64 316.8 336.76 289.12 48.77 364.29"/><polygon class="cls-13" points="554.22 204.94 550.93 214.59 550.93 222.49 562.69 215.53 559.87 204.94 554.22 204.94"/><polygon class="cls-13" points="537.41 262.56 534.12 272.21 534.12 280.11 545.88 273.15 543.06 262.56 537.41 262.56"/><path class="cls-11" d="M449.35,120.69C448.29,123.24,317,153.82,317,153.82l-88.7,1.89L189,175.47l9.15,38.25,121-5.41,170.17-66.68,17.76-13.47Z"/><polyline class="cls-12" points="294.41 167.21 202.2 204.94 167.57 250.17 237.7 258.06 348.06 224.08 398.96 229.24 449.1 179.12 294.41 167.21"/><polygon class="cls-2" points="649 253.12 637.24 271.47 628.47 318.06 636.91 369.98 660.26 359 656.65 284.18 660.26 263.71 650.76 256.65 649 253.12"/><polygon class="cls-1" points="327.21 19 231.82 19 196.5 51 305.24 67.71 348.88 67.71 356.17 65.59 453.87 53.6 449.35 49.12 587 42.41 627.59 37.35 591.71 22.77 505.59 19 442.65 24.65 364.06 19 327.21 19"/><polyline class="cls-16" points="422.45 53.35 453.87 53.6 449.35 49.12 553.1 44.89 489.35 42.41 410.74 48.06"/><polygon class="cls-8" points="422.45 60.22 469.82 75.71 497.04 106.5 505.59 104.94 457.1 56.81 422.45 60.22"/><polygon class="cls-17" points="35.18 314.24 81.59 311.55 90.03 315.59 148.92 285.5 256.64 243.24 355.64 250.17 361.12 270.06 336.76 289.12 332.53 320.56 287.87 346.29 235.47 374.59 150.1 378.82 71.41 397.88 35.18 354.47 35.18 314.24"/><polygon class="cls-18" points="90.03 315.59 48.77 332.53 78.41 354.76 87.56 378.06 136.65 378.06 210.76 369.98 280.65 342.06 327.21 320.56 336.76 280.65 355.64 274.34 355.64 250.17 256.64 243.24 90.03 315.59"/><polygon class="cls-18" points="175.12 394.29 134.18 401.35 111.12 413.35 97.71 430.29 158.88 422.53 185 410.88 175.12 394.29"/><polygon class="cls-19" points="153.18 271.73 157.49 265.9 160.72 263.8 170.05 262.83 173.18 264.13 171.88 267.28 166.87 268.49 162.5 268.49 158.78 270.76 156.19 272.7 153.18 271.73"/><polygon class="cls-20" points="158.78 270.76 161 273.59 163.18 279.9 162.24 288.06 161.88 295.82 170 293.53 176.35 289.12 173.18 284.53 169.82 279.76 167.57 271.65 164.35 268.49 162.5 268.49 158.78 270.76"/><polygon class="cls-19" points="91.68 294.22 95.59 288.94 98.52 287.04 106.97 286.16 109.8 287.33 108.63 290.19 104.09 291.29 100.13 291.29 96.76 293.34 94.42 295.1 91.68 294.22"/><polygon class="cls-20" points="96.76 293.34 98.77 295.9 100.74 301.63 99.89 309.02 99.69 313.44 106.92 313.97 112.68 309.98 109.8 305.82 106.77 301.5 104.72 294.14 101.81 291.29 100.13 291.29 96.76 293.34"/><path class="cls-2" d="M685.12,342.06c-1.06,2.12-34.36,55.82-34.36,55.82l5.89,72.3,3.61,93.17-9.5,69.53,34.36,80.83,59.54,58.23,72.81,110.12L989,1021.82l91-14.82"/><path class="cls-11" d="M702.29,378.06v91.76l-10,166.59,32,70.59,38.36,15.53,52.75,74.82,63.53,114.36,201.12,72V653.35s-96.65-4.23-98.06-9.88S965,496.65,965,496.65L854.88,390.76l-92.28-12.7"/><polygon class="cls-12" points="860.15 358.29 762.6 397.88 733.47 469.82 787.12 662.88 967.82 726.76 931.7 777.59 931.7 846.76 1009.46 891.94 1068.06 907.47 1080 865.12 1080 491 860.15 358.29"/><polygon class="cls-12" points="84.03 446.53 13.82 486.06 0 562.29 11 751.12 48.77 816.41 44.06 883.12 90.15 955.12 119.35 866.53 167.57 742.29 202.2 519.94 222.94 452.18 84.03 446.53"/><polyline class="cls-21" points="274.65 476.88 236.53 526.29 227.35 572.88 206.18 626.53 198.15 731 163.18 781.12 146.18 897.94 135.59 965.71 76.29 1063.12 91.68 1080 147.24 1030.29 173.18 944.53 206.53 875.71 224.53 750.76 243.59 673.47 261.24 614.18 288.06 540 318.76 476.88 369.59 378.06 369.59 342.06 343.12 342.06 308.33 378.06 294.41 436.29 276.41 470.18"/><polyline class="cls-21" points="640.29 482.53 627.59 546.76 589.94 581.35 593.76 646.52 612.4 747.94 662.53 764.88 712.29 853.82 771.84 915.94 850.65 992.18 931.7 1080 877.47 1080 813.94 1045.82 714.24 925.82 656.65 852.41 607.12 790.29 572.53 696.18 562.18 648.18 559.82 615.71 546.18 580.41 540 535.71 578.18 468.88 609.24 406.76 620.06 369.98 631.82 397.88 631.82 428.88"/><path class="cls-11" d="M277.47,412.29l-172.75,30H25.47l-5.65,34.59,80.92,29.65,29.88,18.71,71.58-5.3,51.27-32.47s19.77-19.06,20.47-21.18S277.47,412.29,277.47,412.29Z"/><polyline class="cls-22" points="4.95 520.37 135.57 503.35 178.13 536.18 214.66 570.06 158.13 662.18 168.13 744.76 94.98 798.76 4.95 651.06"/></svg>